<?xml version="1.0" encoding="utf-8"?>
<!-- Generator: Adobe Illustrator 27.9.0, SVG Export Plug-In . SVG Version: 6.00 Build 0)  -->
<svg version="1.1" xmlns="http://www.w3.org/2000/svg" xmlns:xlink="http://www.w3.org/1999/xlink" x="0px" y="0px"
	 viewBox="0 0 1000 2000" style="enable-background:new 0 0 1000 2000;" xml:space="preserve">
<g id="Honk">
	<g>
		<path d="M234.29,557.92c0-6.75,0-12.77,0-18.06c0-5.29,0-10.89,0-16.81c0-5.92,0-11.52,0-16.81c0-5.29,0-11.31,0-18.06
			c7,0,13.27,0,18.81,0c5.54,0,11.44,0,17.69,0s12.14,0,17.69,0c5.54,0,11.81,0,18.81,0c0,1.58,0,3.23,0,4.94c0,1.71,0,3.4,0,5.06
			c-6.08,0-11.52,0-16.31,0c-4.79,0-9.86,0-15.19,0c-5.33,0-10.4,0-15.19,0c-4.79,0-10.23,0-16.31,0c0,5.75,0,10.9,0,15.44
			c0,4.54,0,9.36,0,14.44c0,5.08,0,9.9,0,14.44c0,4.54,0,9.69,0,15.44H234.29z M234.29,587.67v-52.5h10c0,5.25,0,9.62,0,13.12
			s0,7.88,0,13.12s0,9.62,0,13.12s0,7.88,0,13.12H234.29z M244.29,564.92c0,5.75,0,10.9,0,15.44c0,4.54,0,9.36,0,14.44
			c0,5.08,0,9.9,0,14.44c0,4.54,0,9.69,0,15.44c6.08,0,11.52,0,16.31,0c4.79,0,9.85,0,15.19,0c5.33,0,10.39,0,15.19,0
			c4.79,0,10.23,0,16.31,0c0,1.58,0,3.23,0,4.94c0,1.71,0,3.4,0,5.06c-7,0-13.27,0-18.81,0c-5.54,0-11.44,0-17.69,0
			s-12.15,0-17.69,0c-5.54,0-11.81,0-18.81,0c0-6.75,0-12.77,0-18.06c0-5.29,0-10.89,0-16.81c0-5.92,0-11.52,0-16.81
			c0-5.29,0-11.31,0-18.06H244.29z M301.54,572.42c2.67,0,5.33,0,8,0c0.33,0,0.56,0.02,0.69,0.06c0.12,0.04,0.21,0.12,0.25,0.25
			c0.04,0.12,0.06,0.36,0.06,0.69c0,6.83,0,12.79,0,17.88c0,5.08,0,10.17,0,15.25c0,5.08,0,11.04,0,17.88c0,0.5-0.04,0.79-0.12,0.88
			c-0.08,0.08-0.38,0.12-0.88,0.12c-1.58,0-2.92,0-4,0c-1.08,0-2.42,0-4,0c-0.33,0-0.56-0.02-0.69-0.06
			c-0.12-0.04-0.21-0.12-0.25-0.25c-0.04-0.12-0.06-0.35-0.06-0.69c0-6.83,0-12.79,0-17.88c0-5.08,0-10.17,0-15.25
			c0-5.08,0-11.04,0-17.88c0-0.33,0.02-0.56,0.06-0.69c0.04-0.12,0.12-0.21,0.25-0.25C300.98,572.44,301.21,572.42,301.54,572.42z
			 M309.79,550.42c-2.67,0-5.33,0-8,0c-0.33,0-0.56-0.02-0.69-0.06c-0.12-0.04-0.21-0.12-0.25-0.25c-0.04-0.12-0.06-0.35-0.06-0.69
			c0-6.83,0-12.79,0-17.88c0-5.08,0-10.17,0-15.25c0-5.08,0-11.04,0-17.88c0-0.5,0.04-0.79,0.12-0.88c0.08-0.08,0.38-0.12,0.88-0.12
			c1.58,0,2.92,0,4,0c1.08,0,2.42,0,4,0c0.33,0,0.56,0.02,0.69,0.06c0.12,0.04,0.21,0.12,0.25,0.25c0.04,0.12,0.06,0.36,0.06,0.69
			c0,6.83,0,12.79,0,17.88c0,5.08,0,10.17,0,15.25c0,5.08,0,11.04,0,17.88c0,0.33-0.02,0.56-0.06,0.69
			c-0.04,0.12-0.12,0.21-0.25,0.25C310.36,550.4,310.12,550.42,309.79,550.42z M366.79,557.92c0-5.75,0-10.89,0-15.44
			c0-4.54,0-9.35,0-14.44c0-5.08,0-9.89,0-14.44c0-4.54,0-9.69,0-15.44c-6.08,0-11.52,0-16.31,0c-4.79,0-9.86,0-15.19,0
			c-5.33,0-10.4,0-15.19,0c-4.79,0-10.23,0-16.31,0c0-1.67,0-3.35,0-5.06c0-1.71,0-3.35,0-4.94c7,0,13.27,0,18.81,0
			c5.54,0,11.44,0,17.69,0s12.14,0,17.69,0c5.54,0,11.81,0,18.81,0c0,6.75,0,12.77,0,18.06c0,5.29,0,10.9,0,16.81
			c0,5.92,0,11.52,0,16.81c0,5.29,0,11.31,0,18.06H366.79z M376.79,564.92c0,6.75,0,12.77,0,18.06c0,5.29,0,10.9,0,16.81
			c0,5.92,0,11.52,0,16.81c0,5.29,0,11.31,0,18.06c-7,0-13.27,0-18.81,0c-5.54,0-11.44,0-17.69,0s-12.15,0-17.69,0
			c-5.54,0-11.81,0-18.81,0c0-1.67,0-3.35,0-5.06c0-1.71,0-3.35,0-4.94c6.08,0,11.52,0,16.31,0c4.79,0,9.85,0,15.19,0
			c5.33,0,10.39,0,15.19,0c4.79,0,10.23,0,16.31,0c0-5.75,0-10.89,0-15.44c0-4.54,0-9.35,0-14.44c0-5.08,0-9.89,0-14.44
			c0-4.54,0-9.69,0-15.44H376.79z M376.79,587.67h-10c0-5.25,0-9.62,0-13.12s0-7.88,0-13.12s0-9.62,0-13.12s0-7.88,0-13.12h10
			V587.67z"/>
		<path d="M366.79,557.92c0-6.75,0-12.77,0-18.06c0-5.29,0-10.89,0-16.81c0-5.92,0-11.52,0-16.81c0-5.29,0-11.31,0-18.06
			c6.75,0,12.79,0,18.12,0c5.33,0,11.02,0,17.06,0c6.04,0,11.83,0,17.38,0c5.54,0,10.19,0,13.94,0s5.92,0,6.5,0
			c0,1.58,0,3.23,0,4.94c0,1.71,0,3.4,0,5.06c-5.75,0-10.75,0-15,0s-8.5,0-12.75,0s-9.25,0-15,0c-0.25,0-1.08,0.62-2.5,1.88
			c-1.42,1.25-3.12,2.83-5.12,4.75c-2,1.92-3.96,3.86-5.88,5.81c-1.92,1.96-3.52,3.65-4.81,5.06c-1.29,1.42-1.94,2.25-1.94,2.5
			v39.75H366.79z M366.79,587.67v-52.5h10c0,5.25,0,9.62,0,13.12s0,7.88,0,13.12s0,9.62,0,13.12s0,7.88,0,13.12H366.79z
			 M376.79,564.92v39.75c0,0.25,0.64,1.08,1.94,2.5c1.29,1.42,2.89,3.11,4.81,5.06c1.92,1.96,3.88,3.9,5.88,5.81
			c2,1.92,3.71,3.5,5.12,4.75c1.42,1.25,2.25,1.88,2.5,1.88c5.75,0,10.75,0,15,0s8.5,0,12.75,0s9.25,0,15,0c0,1.58,0,3.23,0,4.94
			c0,1.71,0,3.4,0,5.06c-0.58,0-2.75,0-6.5,0s-8.4,0-13.94,0c-5.54,0-11.33,0-17.38,0c-6.04,0-11.73,0-17.06,0
			c-5.33,0-11.38,0-18.12,0c0-6.75,0-12.77,0-18.06c0-5.29,0-10.89,0-16.81c0-5.92,0-11.52,0-16.81c0-5.29,0-11.31,0-18.06H376.79z
			 M433.04,552.29c0-2.92,0-5.83,0-8.75c0-2.92,0-6.38,0-10.38c0-0.33,0.02-0.56,0.06-0.69c0.04-0.12,0.12-0.21,0.25-0.25
			c0.12-0.04,0.35-0.06,0.69-0.06c0.92,0,1.81,0,2.69,0s1.75,0,2.62,0s1.77,0,2.69,0c0.33,0,0.56,0.02,0.69,0.06
			c0.12,0.04,0.21,0.12,0.25,0.25c0.04,0.12,0.06,0.36,0.06,0.69c0,4,0,7.46,0,10.38c0,2.92,0,5.83,0,8.75c0,2.92,0,6.38,0,10.38
			c0,2.58,0,4.88,0,6.88s0,4.12,0,6.38s0,4.38,0,6.38s0,4.29,0,6.88c0,0.33-0.02,0.56-0.06,0.69c-0.04,0.12-0.12,0.21-0.25,0.25
			c-0.12,0.04-0.36,0.06-0.69,0.06c-1.33,0-2.65,0-3.94,0c-1.29,0-2.65,0-4.06,0c-0.33,0-0.56-0.02-0.69-0.06
			c-0.12-0.04-0.21-0.12-0.25-0.25c-0.04-0.12-0.06-0.35-0.06-0.69c0-2.58,0-4.88,0-6.88s0-4.12,0-6.38s0-4.38,0-6.38s0-4.29,0-6.88
			C433.04,558.67,433.04,555.21,433.04,552.29z M499.29,557.92v-39.75c0-0.25-0.65-1.08-1.94-2.5c-1.29-1.42-2.9-3.1-4.81-5.06
			c-1.92-1.96-3.88-3.89-5.88-5.81c-2-1.92-3.71-3.5-5.12-4.75c-1.42-1.25-2.25-1.88-2.5-1.88c-5.75,0-10.75,0-15,0s-8.5,0-12.75,0
			s-9.25,0-15,0c0-1.67,0-3.35,0-5.06c0-1.71,0-3.35,0-4.94c0.58,0,2.75,0,6.5,0s8.39,0,13.94,0c5.54,0,11.33,0,17.38,0
			c6.04,0,11.73,0,17.06,0c5.33,0,11.38,0,18.12,0c0,6.75,0,12.77,0,18.06c0,5.29,0,10.9,0,16.81c0,5.92,0,11.52,0,16.81
			c0,5.29,0,11.31,0,18.06H499.29z M509.29,564.92c0,6.75,0,12.77,0,18.06c0,5.29,0,10.9,0,16.81c0,5.92,0,11.52,0,16.81
			c0,5.29,0,11.31,0,18.06c-6.75,0-12.79,0-18.12,0c-5.33,0-11.02,0-17.06,0c-6.04,0-11.83,0-17.38,0c-5.54,0-10.19,0-13.94,0
			s-5.92,0-6.5,0c0-1.67,0-3.35,0-5.06c0-1.71,0-3.35,0-4.94c5.75,0,10.75,0,15,0s8.5,0,12.75,0s9.25,0,15,0
			c0.25,0,1.08-0.62,2.5-1.88c1.42-1.25,3.12-2.83,5.12-4.75c2-1.92,3.96-3.85,5.88-5.81c1.92-1.96,3.52-3.64,4.81-5.06
			c1.29-1.42,1.94-2.25,1.94-2.5v-39.75H509.29z M509.29,587.67h-10c0-5.25,0-9.62,0-13.12s0-7.88,0-13.12s0-9.62,0-13.12
			s0-7.88,0-13.12h10V587.67z"/>
		<path d="M499.29,557.92c0-6.75,0-12.77,0-18.06c0-5.29,0-10.89,0-16.81c0-5.92,0-11.52,0-16.81c0-5.29,0-11.31,0-18.06
			c7,0,13.27,0,18.81,0c5.54,0,11.44,0,17.69,0s12.14,0,17.69,0c5.54,0,11.81,0,18.81,0c0,1.58,0,3.23,0,4.94c0,1.71,0,3.4,0,5.06
			c-6.08,0-11.52,0-16.31,0c-4.79,0-9.86,0-15.19,0c-5.33,0-10.4,0-15.19,0c-4.79,0-10.23,0-16.31,0c0,5.75,0,10.9,0,15.44
			c0,4.54,0,9.36,0,14.44c0,5.08,0,9.9,0,14.44c0,4.54,0,9.69,0,15.44H499.29z M499.29,585.17v-52.5h10c0,5.25,0,9.62,0,13.12
			s0,7.88,0,13.12s0,9.62,0,13.12s0,7.88,0,13.12H499.29z M509.29,564.92c0,5.75,0,10.9,0,15.44c0,4.54,0,9.36,0,14.44
			c0,5.08,0,9.9,0,14.44c0,4.54,0,9.69,0,15.44c6.08,0,11.52,0,16.31,0c4.79,0,9.85,0,15.19,0c5.33,0,10.39,0,15.19,0
			c4.79,0,10.23,0,16.31,0c0,1.58,0,3.23,0,4.94c0,1.71,0,3.4,0,5.06c-7,0-13.27,0-18.81,0c-5.54,0-11.44,0-17.69,0
			s-12.15,0-17.69,0c-5.54,0-11.81,0-18.81,0c0-6.75,0-12.77,0-18.06c0-5.29,0-10.89,0-16.81c0-5.92,0-11.52,0-16.81
			c0-5.29,0-11.31,0-18.06H509.29z M570.29,629.42c-2.17-1.5-4.29-2.96-6.38-4.38c-1.42-5.83-2.67-11.04-3.75-15.62
			c-1.08-4.58-2.23-9.46-3.44-14.62c-1.21-5.17-2.36-10.04-3.44-14.62c-1.08-4.58-2.33-9.79-3.75-15.62
			c3.08-0.83,6.17-1.62,9.25-2.38c1.42,6.08,2.69,11.5,3.81,16.25s2.33,9.79,3.62,15.12c1.29,5.33,2.5,10.38,3.62,15.12
			c1.12,4.75,2.39,10.17,3.81,16.25C572.58,626.42,571.46,627.92,570.29,629.42z M571.04,493.17c2.08,1.42,4.21,2.88,6.38,4.38
			c1.42,5.83,2.67,11.04,3.75,15.62c1.08,4.58,2.23,9.46,3.44,14.62c1.21,5.17,2.35,10.04,3.44,14.62
			c1.08,4.58,2.33,9.79,3.75,15.62c-3.08,0.75-6.17,1.54-9.25,2.38c-1.42-6.08-2.69-11.5-3.81-16.25s-2.33-9.79-3.62-15.12
			c-1.29-5.33-2.5-10.38-3.62-15.12c-1.12-4.75-2.4-10.17-3.81-16.25C568.83,496.17,569.96,494.67,571.04,493.17z M631.79,557.92
			c0-5.75,0-10.89,0-15.44c0-4.54,0-9.35,0-14.44c0-5.08,0-9.89,0-14.44c0-4.54,0-9.69,0-15.44c-6.08,0-11.52,0-16.31,0
			c-4.79,0-9.86,0-15.19,0c-5.33,0-10.4,0-15.19,0c-4.79,0-10.23,0-16.31,0c0-1.67,0-3.35,0-5.06c0-1.71,0-3.35,0-4.94
			c7,0,13.27,0,18.81,0c5.54,0,11.44,0,17.69,0s12.14,0,17.69,0c5.54,0,11.81,0,18.81,0c0,6.75,0,12.77,0,18.06
			c0,5.29,0,10.9,0,16.81c0,5.92,0,11.52,0,16.81c0,5.29,0,11.31,0,18.06H631.79z M641.79,564.92c0,6.75,0,12.77,0,18.06
			c0,5.29,0,10.9,0,16.81c0,5.92,0,11.52,0,16.81c0,5.29,0,11.31,0,18.06c-7,0-13.27,0-18.81,0c-5.54,0-11.44,0-17.69,0
			s-12.15,0-17.69,0c-5.54,0-11.81,0-18.81,0c0-1.67,0-3.35,0-5.06c0-1.71,0-3.35,0-4.94c6.08,0,11.52,0,16.31,0
			c4.79,0,9.85,0,15.19,0c5.33,0,10.39,0,15.19,0c4.79,0,10.23,0,16.31,0c0-5.75,0-10.89,0-15.44c0-4.54,0-9.35,0-14.44
			c0-5.08,0-9.89,0-14.44c0-4.54,0-9.69,0-15.44H641.79z M641.79,585.17h-10c0-5.25,0-9.62,0-13.12s0-7.88,0-13.12s0-9.62,0-13.12
			s0-7.88,0-13.12h10V585.17z"/>
		<path d="M631.79,557.92c0-6.75,0-12.77,0-18.06c0-5.29,0-10.89,0-16.81c0-5.92,0-11.52,0-16.81c0-5.29,0-11.31,0-18.06
			c7,0,13.27,0,18.81,0c5.54,0,11.44,0,17.69,0s12.14,0,17.69,0c5.54,0,11.81,0,18.81,0c0,1.58,0,3.23,0,4.94c0,1.71,0,3.4,0,5.06
			c-6.08,0-11.52,0-16.31,0c-4.79,0-9.86,0-15.19,0c-5.33,0-10.4,0-15.19,0c-4.79,0-10.23,0-16.31,0c0,5.75,0,10.9,0,15.44
			c0,4.54,0,9.36,0,14.44c0,5.08,0,9.9,0,14.44c0,4.54,0,9.69,0,15.44H631.79z M631.79,587.67v-52.5h10c0,5.25,0,9.62,0,13.12
			s0,7.88,0,13.12s0,9.62,0,13.12s0,7.88,0,13.12H631.79z M641.79,564.92c0,5.75,0,10.9,0,15.44c0,4.54,0,9.36,0,14.44
			c0,5.08,0,9.9,0,14.44c0,4.54,0,9.69,0,15.44c6.08,0,11.52,0,16.31,0c4.79,0,9.85,0,15.19,0c5.33,0,10.39,0,15.19,0
			c4.79,0,10.23,0,16.31,0c0,1.58,0,3.23,0,4.94c0,1.71,0,3.4,0,5.06c-7,0-13.27,0-18.81,0c-5.54,0-11.44,0-17.69,0
			s-12.15,0-17.69,0c-5.54,0-11.81,0-18.81,0c0-6.75,0-12.77,0-18.06c0-5.29,0-10.89,0-16.81c0-5.92,0-11.52,0-16.81
			c0-5.29,0-11.31,0-18.06H641.79z M698.35,550.35c-0.12-0.04-0.21-0.12-0.25-0.25c-0.04-0.12-0.06-0.35-0.06-0.69
			c0-6.83,0-12.79,0-17.88c0-5.08,0-10.17,0-15.25c0-5.08,0-11.04,0-17.88c0-0.33,0.02-0.56,0.06-0.69
			c0.04-0.12,0.12-0.21,0.25-0.25c0.12-0.04,0.35-0.06,0.69-0.06c1.58,0,2.92,0,4,0c1.08,0,2.42,0,4,0c0.5,0,0.79,0.04,0.88,0.12
			c0.08,0.08,0.12,0.38,0.12,0.88c0,6.83,0,12.79,0,17.88c0,5.08,0,10.17,0,15.25c0,5.08,0,11.04,0,17.88
			c0,0.33-0.02,0.56-0.06,0.69c-0.04,0.12-0.12,0.21-0.25,0.25c-0.12,0.04-0.36,0.06-0.69,0.06c-2.67,0-5.33,0-8,0
			C698.71,550.42,698.48,550.4,698.35,550.35z M698.04,581.42c1,0,1.88,0,2.62,0s1.54,0,2.38,0c0.92,0,1.77,0,2.56,0
			c0.79,0,1.69,0,2.69,0c0,1.33,0,3.65,0,6.94c0,3.29,0,6.98,0,11.06c0,4.08,0,8.06,0,11.94s0,8.31,0,13.31c5.42,0,10.25,0,14.5,0
			s8.75,0,13.5,0s9.25,0,13.5,0s9.08,0,14.5,0c0-5.25,0-9.39,0-12.44c0-3.04,0-5.14,0-6.31c0-0.92,0-1.81,0-2.69s0-1.96,0-3.25
			c0-1.29,0-2.94,0-4.94s0-4.54,0-7.62c0-3.5,0-6.42,0-8.75c0-2.33,0-5.25,0-8.75h10c0,4.08,0,8.61,0,13.56c0,4.96,0,10.21,0,15.75
			c0,5.54,0,11.29,0,17.25c0,5.96,0,12.02,0,18.19c-7.17,0-13.58,0-19.25,0c-5.67,0-11.71,0-18.12,0c-6.42,0-12.52,0-18.31,0
			c-5.79,0-10.58,0-14.38,0c-3.79,0-5.86,0-6.19,0c0-2,0-3.67,0-5c0-1.33,0-3,0-5c0-3.33,0-6.64,0-9.94c0-3.29,0-6.5,0-9.62
			s0-6.1,0-8.94c0-2.83,0-5.5,0-8S698.04,583.42,698.04,581.42z M764.29,557.92c0-5.75,0-10.89,0-15.44c0-4.54,0-9.35,0-14.44
			c0-5.08,0-9.89,0-14.44c0-4.54,0-9.69,0-15.44c-6.08,0-11.52,0-16.31,0c-4.79,0-9.86,0-15.19,0c-5.33,0-10.4,0-15.19,0
			c-4.79,0-10.23,0-16.31,0c0-1.67,0-3.35,0-5.06c0-1.71,0-3.35,0-4.94c7,0,13.27,0,18.81,0c5.54,0,11.44,0,17.69,0s12.14,0,17.69,0
			c5.54,0,11.81,0,18.81,0c0,6.75,0,12.77,0,18.06c0,5.29,0,10.9,0,16.81c0,5.92,0,11.52,0,16.81c0,5.29,0,11.31,0,18.06H764.29z
			 M764.29,574.42c-3.58-1.83-6.71-3.42-9.38-4.75c-2.67-1.33-5.33-2.67-8-4c-2.67-1.33-5.79-2.92-9.38-4.75
			c3.58-1.92,6.71-3.56,9.38-4.94c2.67-1.38,5.33-2.75,8-4.12c2.67-1.38,5.79-3.02,9.38-4.94c0.67,2.58,1.14,4.94,1.44,7.06
			c0.29,2.12,0.44,4.17,0.44,6.12c0,1.96-0.15,4.08-0.44,6.38C765.44,568.77,764.96,571.42,764.29,574.42z M774.29,610.17h-10
			c0-13.25,0-27.42,0-42.5v-1.25v-1.25c0-16.42,0-32.25,0-47.5h10V610.17z"/>
	</g>
</g>
<g id="Flower">
	<g>
		<path d="M215.43,1215.34c0-6.58,0-12.44,0-17.56s0-10.6,0-16.44c0-5.83,0-11.31,0-16.44s0-10.98,0-17.56c2.17,0,3.96,0,5.38,0
			s3.21,0,5.38,0c2.75,0,5.25,0.04,7.5,0.12c2.25,0.08,4.27,0.23,6.06,0.44c1.79,0.21,3.42,0.46,4.88,0.75
			c1.46,0.29,2.79,0.69,4,1.19c1.21,0.5,2.31,1.11,3.31,1.81c1,0.71,1.92,1.52,2.75,2.44c2.58-4.17,5.54-7.08,8.88-8.75
			c3.33-1.67,6.94-3.27,10.81-4.81c3.88-1.54,7.98-4.19,12.31-7.94c0.67,2.33,1,4.65,1,6.94c0,2.29-0.33,4.65-1,7.06
			c-1.58,1.92-3.27,3.5-5.06,4.75c-1.79,1.25-3.62,2.31-5.5,3.19s-3.73,1.79-5.56,2.75c-1.83,0.96-3.62,2.15-5.38,3.56
			c-1.75,1.42-3.4,3.25-4.94,5.5c-1.54,2.25-2.98,5.17-4.31,8.75c-1.33-3.83-3.02-6.56-5.06-8.19c-2.04-1.62-4.36-2.77-6.94-3.44
			c-2.58-0.67-5.42-1.35-8.5-2.06c-3.08-0.71-6.42-2.06-10-4.06c0,3.42,0,6.94,0,10.56s0,7.65,0,12.06c0,4.42,0,9.46,0,15.12
			c0,1.92,0,3.65,0,5.19c0,1.54,0,3.19,0,4.94s0,3.4,0,4.94c0,1.54,0,3.27,0,5.19H215.43z M215.43,1249.34v-52.5h10
			c0,4.08,0.31,7.65,0.94,10.69c0.62,3.04,1.48,5.62,2.56,7.75c1.08,2.12,2.33,3.83,3.75,5.12c1.42,1.29,2.92,2.19,4.5,2.69
			c-1.58,0.5-3.08,1.29-4.5,2.38c-1.42,1.08-2.67,2.61-3.75,4.56c-1.08,1.96-1.94,4.5-2.56,7.62s-0.94,7.02-0.94,11.69H215.43z
			 M225.43,1230.84c0,1.92,0,3.65,0,5.19c0,1.54,0,3.19,0,4.94s0,3.4,0,4.94c0,1.54,0,3.27,0,5.19c0,5.67,0,10.69,0,15.06
			s0,8.4,0,12.06c0,3.67,0,7.21,0,10.62c3.58-2,6.92-3.35,10-4.06c3.08-0.71,5.92-1.39,8.5-2.06c2.58-0.67,4.89-1.81,6.94-3.44
			c2.04-1.62,3.73-4.35,5.06-8.19c1.33,3.5,2.77,6.4,4.31,8.69c1.54,2.29,3.19,4.15,4.94,5.56c1.75,1.42,3.54,2.61,5.38,3.56
			c1.83,0.96,3.69,1.88,5.56,2.75s3.71,1.92,5.5,3.12c1.79,1.21,3.48,2.81,5.06,4.81c0.67,2.33,1,4.64,1,6.94
			c0,2.29-0.33,4.64-1,7.06c-4.33-3.75-8.44-6.4-12.31-7.94c-3.88-1.54-7.48-3.15-10.81-4.81c-3.33-1.67-6.29-4.58-8.88-8.75
			c-0.83,0.92-1.75,1.73-2.75,2.44c-1,0.71-2.11,1.31-3.31,1.81c-1.21,0.5-2.54,0.9-4,1.19c-1.46,0.29-3.08,0.54-4.88,0.75
			c-1.79,0.21-3.81,0.36-6.06,0.44c-2.25,0.08-4.75,0.12-7.5,0.12c-2.17,0-3.96,0-5.38,0s-3.21,0-5.38,0c0-6.58,0-12.44,0-17.56
			s0-10.6,0-16.44c0-5.83,0-11.31,0-16.44s0-10.98,0-17.56H225.43z M300.18,1240.59c-2.08,1.08-3.79,2.31-5.12,3.69
			c-1.33,1.38-2.42,2.94-3.25,4.69c-0.83,1.75-1.46,3.69-1.88,5.81c-0.42,2.12-0.69,4.46-0.81,7c-0.12,2.54-0.19,5.31-0.19,8.31
			c0,3.92,0.27,7.44,0.81,10.56c0.54,3.12,1.38,5.88,2.5,8.25s2.54,4.36,4.25,5.94c1.71,1.58,3.73,2.77,6.06,3.56
			c2.33,0.79,4.96,1.19,7.88,1.19c-3.33,1.08-7.19,1.92-11.56,2.5c-4.38,0.58-8.83,0.88-13.38,0.88c-4.54,0-8.88-0.29-13-0.88
			c-4.12-0.58-7.65-1.42-10.56-2.5c3.58,0,6.67-0.4,9.25-1.19c2.58-0.79,4.73-1.98,6.44-3.56c1.71-1.58,3.06-3.56,4.06-5.94
			s1.71-5.12,2.12-8.25c0.42-3.12,0.62-6.64,0.62-10.56c0-3-0.06-5.77-0.19-8.31c-0.12-2.54-0.4-4.88-0.81-7
			c-0.42-2.12-1.04-4.06-1.88-5.81c-0.83-1.75-1.96-3.31-3.38-4.69c-1.42-1.38-3.17-2.6-5.25-3.69c4.83,1.25,9.67,2.5,14.5,3.75
			C291.68,1243.09,295.93,1241.84,300.18,1240.59z M273.43,1205.59c2.08-1.08,3.79-2.31,5.12-3.69c1.33-1.38,2.42-2.94,3.25-4.69
			c0.83-1.75,1.46-3.69,1.88-5.81c0.42-2.12,0.69-4.46,0.81-7c0.12-2.54,0.19-5.31,0.19-8.31c0-3.92-0.27-7.44-0.81-10.56
			c-0.54-3.12-1.38-5.88-2.5-8.25s-2.54-4.35-4.25-5.94c-1.71-1.58-3.73-2.77-6.06-3.56c-2.33-0.79-4.96-1.19-7.88-1.19
			c3.42-1.17,7.29-2.02,11.62-2.56c4.33-0.54,8.77-0.81,13.31-0.81c4.54,0,8.88,0.27,13,0.81c4.12,0.54,7.64,1.4,10.56,2.56
			c-3.58,0-6.67,0.4-9.25,1.19c-2.58,0.79-4.73,1.98-6.44,3.56c-1.71,1.58-3.06,3.56-4.06,5.94s-1.71,5.12-2.12,8.25
			c-0.42,3.12-0.62,6.65-0.62,10.56c0,3,0.06,5.77,0.19,8.31c0.12,2.54,0.39,4.88,0.81,7c0.42,2.12,1.04,4.06,1.88,5.81
			c0.83,1.75,1.96,3.31,3.38,4.69c1.42,1.38,3.17,2.61,5.25,3.69c-4.83-1.25-9.67-2.5-14.5-3.75
			C281.93,1203.09,277.68,1204.34,273.43,1205.59z M347.93,1215.34c0-1.92,0-3.64,0-5.19c0-1.54,0-3.19,0-4.94s0-3.39,0-4.94
			c0-1.54,0-3.27,0-5.19c0-5.67,0-10.71,0-15.12c0-4.42,0-8.44,0-12.06s0-7.14,0-10.56c-3.58,2-6.92,3.36-10,4.06
			c-3.08,0.71-5.92,1.4-8.5,2.06c-2.58,0.67-4.88,1.81-6.88,3.44s-3.71,4.36-5.12,8.19c-1.25-3.58-2.67-6.5-4.25-8.75
			c-1.58-2.25-3.25-4.08-5-5.5c-1.75-1.42-3.54-2.6-5.38-3.56c-1.83-0.96-3.69-1.88-5.56-2.75s-3.69-1.94-5.44-3.19
			s-3.46-2.83-5.12-4.75c-0.58-2.42-0.88-4.77-0.88-7.06c0-2.29,0.29-4.6,0.88-6.94c4.33,3.75,8.46,6.4,12.38,7.94
			c3.92,1.54,7.52,3.15,10.81,4.81c3.29,1.67,6.23,4.58,8.81,8.75c0.92-0.92,1.85-1.73,2.81-2.44c0.96-0.71,2.04-1.31,3.25-1.81
			c1.21-0.5,2.54-0.89,4-1.19c1.46-0.29,3.08-0.54,4.88-0.75c1.79-0.21,3.81-0.35,6.06-0.44c2.25-0.08,4.75-0.12,7.5-0.12
			c2.17,0,3.96,0,5.38,0c1.42,0,3.21,0,5.38,0c0,6.58,0,12.44,0,17.56s0,10.61,0,16.44c0,5.83,0,11.31,0,16.44s0,10.98,0,17.56
			H347.93z M357.93,1230.84c0,6.58,0,12.44,0,17.56s0,10.61,0,16.44c0,5.83,0,11.31,0,16.44s0,10.98,0,17.56c-2.17,0-3.96,0-5.38,0
			c-1.42,0-3.21,0-5.38,0c-2.75,0-5.25-0.04-7.5-0.12c-2.25-0.08-4.27-0.23-6.06-0.44c-1.79-0.21-3.42-0.46-4.88-0.75
			c-1.46-0.29-2.79-0.69-4-1.19c-1.21-0.5-2.29-1.1-3.25-1.81c-0.96-0.71-1.9-1.52-2.81-2.44c-2.58,4.17-5.52,7.08-8.81,8.75
			c-3.29,1.67-6.9,3.27-10.81,4.81c-3.92,1.54-8.04,4.19-12.38,7.94c-0.58-2.42-0.88-4.77-0.88-7.06c0-2.29,0.29-4.61,0.88-6.94
			c1.67-2,3.38-3.6,5.12-4.81c1.75-1.21,3.56-2.25,5.44-3.12s3.73-1.79,5.56-2.75c1.83-0.96,3.62-2.14,5.38-3.56
			c1.75-1.42,3.42-3.27,5-5.56c1.58-2.29,3-5.19,4.25-8.69c1.42,3.83,3.12,6.56,5.12,8.19s4.29,2.77,6.88,3.44
			c2.58,0.67,5.42,1.36,8.5,2.06c3.08,0.71,6.42,2.06,10,4.06c0-3.42,0-6.96,0-10.62c0-3.67,0-7.69,0-12.06s0-9.39,0-15.06
			c0-1.92,0-3.64,0-5.19c0-1.54,0-3.19,0-4.94s0-3.39,0-4.94c0-1.54,0-3.27,0-5.19H357.93z M357.93,1249.34h-10
			c0-4.67-0.31-8.56-0.94-11.69s-1.48-5.67-2.56-7.62c-1.08-1.96-2.33-3.48-3.75-4.56c-1.42-1.08-2.92-1.88-4.5-2.38
			c1.58-0.5,3.08-1.39,4.5-2.69c1.42-1.29,2.67-3,3.75-5.12c1.08-2.12,1.94-4.71,2.56-7.75c0.62-3.04,0.94-6.6,0.94-10.69h10
			V1249.34z"/>
		<path d="M347.93,1210.34c0-6.08,0-11.52,0-16.31c0-4.79,0-9.85,0-15.19c0-5.33,0-10.39,0-15.19c0-4.79,0-10.23,0-16.31
			c2.17,0,3.96,0,5.38,0s3.21,0,5.38,0c2.75,0,5.25,0.04,7.5,0.12c2.25,0.08,4.27,0.23,6.06,0.44c1.79,0.21,3.42,0.46,4.88,0.75
			c1.46,0.29,2.79,0.69,4,1.19c1.21,0.5,2.31,1.11,3.31,1.81c1,0.71,1.92,1.52,2.75,2.44c2.58-4.17,5.54-7.08,8.88-8.75
			c3.33-1.67,6.94-3.27,10.81-4.81c3.88-1.54,7.98-4.19,12.31-7.94c0.67,2.33,1,4.65,1,6.94c0,2.29-0.33,4.65-1,7.06
			c-1.92,2.33-3.94,4.17-6.06,5.5c-2.12,1.33-4.27,2.5-6.44,3.5c-2.17,1-4.29,2.21-6.38,3.62c-2.08,1.42-4.06,3.36-5.94,5.81
			c-1.88,2.46-3.52,5.81-4.94,10.06c-1.67-4.33-3.96-7.33-6.88-9c-2.92-1.67-5.96-2.98-9.12-3.94c-3.17-0.96-6-2.56-8.5-4.81
			c-0.17,2.08-0.5,4.17-1,6.25c-0.5,2.08-1.08,4.27-1.75,6.56c-0.67,2.29-1.33,4.71-2,7.25c-0.67,2.54-1.21,5.27-1.62,8.19
			c-0.42,2.92-0.62,6.08-0.62,9.5v15.25H347.93z M347.93,1249.34v-52.5h10c0,4.08,0.31,7.65,0.94,10.69
			c0.62,3.04,1.48,5.62,2.56,7.75c1.08,2.12,2.33,3.83,3.75,5.12c1.42,1.29,2.92,2.19,4.5,2.69c-1.58,0.5-3.08,1.29-4.5,2.38
			c-1.42,1.08-2.67,2.61-3.75,4.56c-1.08,1.96-1.94,4.5-2.56,7.62s-0.94,7.02-0.94,11.69H347.93z M357.93,1235.84v15.25
			c0,3.42,0.21,6.58,0.62,9.5c0.42,2.92,0.96,5.65,1.62,8.19c0.67,2.54,1.33,4.96,2,7.25c0.67,2.29,1.25,4.48,1.75,6.56
			c0.5,2.08,0.83,4.17,1,6.25c2.5-2.25,5.33-3.85,8.5-4.81c3.17-0.96,6.21-2.27,9.12-3.94c2.92-1.67,5.21-4.67,6.88-9
			c1.42,4.25,3.06,7.61,4.94,10.06c1.88,2.46,3.85,4.4,5.94,5.81c2.08,1.42,4.21,2.62,6.38,3.62c2.17,1,4.31,2.17,6.44,3.5
			c2.12,1.33,4.14,3.17,6.06,5.5c0.67,2.33,1,4.64,1,6.94c0,2.29-0.33,4.64-1,7.06c-4.33-3.75-8.44-6.4-12.31-7.94
			c-3.88-1.54-7.48-3.15-10.81-4.81c-3.33-1.67-6.29-4.58-8.88-8.75c-0.83,0.92-1.75,1.73-2.75,2.44c-1,0.71-2.11,1.31-3.31,1.81
			c-1.21,0.5-2.54,0.9-4,1.19c-1.46,0.29-3.08,0.54-4.88,0.75c-1.79,0.21-3.81,0.36-6.06,0.44c-2.25,0.08-4.75,0.12-7.5,0.12
			c-2.17,0-3.96,0-5.38,0s-3.21,0-5.38,0c0-6.08,0-11.52,0-16.31c0-4.79,0-9.85,0-15.19c0-5.33,0-10.39,0-15.19
			c0-4.79,0-10.23,0-16.31H357.93z M401.68,1224.34c3-0.58,5.48-1.5,7.44-2.75c1.96-1.25,3.54-2.79,4.75-4.62
			c1.21-1.83,2.14-3.92,2.81-6.25c0.67-2.33,1.17-4.92,1.5-7.75c0.33-2.83,0.67-5.88,1-9.12c0.17,3.25,0.42,6.29,0.75,9.12
			c0.33,2.83,0.83,5.42,1.5,7.75c0.67,2.33,1.62,4.42,2.88,6.25c1.25,1.83,2.88,3.38,4.88,4.62s4.5,2.17,7.5,2.75
			c-2.5,0.42-4.65,1-6.44,1.75c-1.79,0.75-3.31,1.71-4.56,2.88c-1.25,1.17-2.25,2.5-3,4s-1.36,3.19-1.81,5.06
			c-0.46,1.88-0.81,3.96-1.06,6.25c-0.25,2.29-0.46,4.81-0.62,7.56c-0.17-2.75-0.4-5.27-0.69-7.56c-0.29-2.29-0.67-4.38-1.12-6.25
			c-0.46-1.88-1.06-3.56-1.81-5.06s-1.73-2.83-2.94-4c-1.21-1.17-2.71-2.12-4.5-2.88C406.32,1225.34,404.18,1224.76,401.68,1224.34z
			 M480.43,1210.34v-15.25c0-3.42-0.21-6.58-0.62-9.5c-0.42-2.92-0.96-5.64-1.62-8.19c-0.67-2.54-1.33-4.96-2-7.25
			c-0.67-2.29-1.25-4.48-1.75-6.56c-0.5-2.08-0.83-4.17-1-6.25c-2.5,2.25-5.33,3.86-8.5,4.81c-3.17,0.96-6.21,2.27-9.12,3.94
			c-2.92,1.67-5.21,4.67-6.88,9c-1.42-4.25-3.06-7.6-4.94-10.06c-1.88-2.46-3.86-4.39-5.94-5.81c-2.08-1.42-4.21-2.62-6.38-3.62
			c-2.17-1-4.31-2.17-6.44-3.5c-2.12-1.33-4.15-3.17-6.06-5.5c-0.58-2.42-0.88-4.77-0.88-7.06c0-2.29,0.29-4.6,0.88-6.94
			c4.33,3.75,8.46,6.4,12.38,7.94c3.92,1.54,7.52,3.15,10.81,4.81c3.29,1.67,6.23,4.58,8.81,8.75c0.92-0.92,1.85-1.73,2.81-2.44
			c0.96-0.71,2.04-1.31,3.25-1.81c1.21-0.5,2.54-0.89,4-1.19c1.46-0.29,3.08-0.54,4.88-0.75c1.79-0.21,3.81-0.35,6.06-0.44
			c2.25-0.08,4.75-0.12,7.5-0.12c2.17,0,3.96,0,5.38,0c1.42,0,3.21,0,5.38,0c0,6.08,0,11.52,0,16.31c0,4.79,0,9.86,0,15.19
			c0,5.33,0,10.4,0,15.19c0,4.79,0,10.23,0,16.31H480.43z M490.43,1235.84c0,6.08,0,11.52,0,16.31c0,4.79,0,9.86,0,15.19
			c0,5.33,0,10.4,0,15.19c0,4.79,0,10.23,0,16.31c-2.17,0-3.96,0-5.38,0c-1.42,0-3.21,0-5.38,0c-2.75,0-5.25-0.04-7.5-0.12
			c-2.25-0.08-4.27-0.23-6.06-0.44c-1.79-0.21-3.42-0.46-4.88-0.75c-1.46-0.29-2.79-0.69-4-1.19c-1.21-0.5-2.29-1.1-3.25-1.81
			c-0.96-0.71-1.9-1.52-2.81-2.44c-2.58,4.17-5.52,7.08-8.81,8.75c-3.29,1.67-6.9,3.27-10.81,4.81c-3.92,1.54-8.04,4.19-12.38,7.94
			c-0.58-2.42-0.88-4.77-0.88-7.06c0-2.29,0.29-4.61,0.88-6.94c1.92-2.33,3.94-4.17,6.06-5.5c2.12-1.33,4.27-2.5,6.44-3.5
			c2.17-1,4.29-2.21,6.38-3.62c2.08-1.42,4.06-3.35,5.94-5.81c1.88-2.46,3.52-5.81,4.94-10.06c1.67,4.33,3.96,7.33,6.88,9
			c2.92,1.67,5.96,2.98,9.12,3.94c3.17,0.96,6,2.56,8.5,4.81c0.17-2.08,0.5-4.17,1-6.25c0.5-2.08,1.08-4.27,1.75-6.56
			c0.67-2.29,1.33-4.71,2-7.25c0.67-2.54,1.21-5.27,1.62-8.19c0.42-2.92,0.62-6.08,0.62-9.5v-15.25H490.43z M490.43,1249.34h-10
			c0-4.67-0.31-8.56-0.94-11.69s-1.48-5.67-2.56-7.62c-1.08-1.96-2.33-3.48-3.75-4.56c-1.42-1.08-2.92-1.88-4.5-2.38
			c1.58-0.5,3.08-1.39,4.5-2.69c1.42-1.29,2.67-3,3.75-5.12c1.08-2.12,1.94-4.71,2.56-7.75c0.62-3.04,0.94-6.6,0.94-10.69h10
			V1249.34z"/>
		<path d="M480.43,1215.34c0-6.58,0-12.44,0-17.56s0-10.6,0-16.44c0-5.83,0-11.31,0-16.44s0-10.98,0-17.56c2.17,0,3.96,0,5.38,0
			s3.21,0,5.38,0c2.75,0,5.25,0.04,7.5,0.12c2.25,0.08,4.27,0.23,6.06,0.44c1.79,0.21,3.42,0.46,4.88,0.75
			c1.46,0.29,2.79,0.69,4,1.19c1.21,0.5,2.31,1.11,3.31,1.81c1,0.71,1.92,1.52,2.75,2.44c2.58-4.17,5.54-7.08,8.88-8.75
			c3.33-1.67,6.94-3.27,10.81-4.81c3.88-1.54,7.98-4.19,12.31-7.94c0.67,2.33,1,4.65,1,6.94c0,2.29-0.33,4.65-1,7.06
			c-1.58,1.92-3.27,3.5-5.06,4.75c-1.79,1.25-3.62,2.31-5.5,3.19s-3.73,1.79-5.56,2.75c-1.83,0.96-3.62,2.15-5.38,3.56
			c-1.75,1.42-3.4,3.25-4.94,5.5c-1.54,2.25-2.98,5.17-4.31,8.75c-1.33-3.83-3.02-6.56-5.06-8.19c-2.04-1.62-4.36-2.77-6.94-3.44
			c-2.58-0.67-5.42-1.35-8.5-2.06c-3.08-0.71-6.42-2.06-10-4.06c0,3.42,0,6.94,0,10.56s0,7.65,0,12.06c0,4.42,0,9.46,0,15.12
			c0,1.92,0,3.65,0,5.19c0,1.54,0,3.19,0,4.94s0,3.4,0,4.94c0,1.54,0,3.27,0,5.19H480.43z M480.43,1249.34v-52.5h10
			c0,4.08,0.31,7.65,0.94,10.69c0.62,3.04,1.48,5.62,2.56,7.75c1.08,2.12,2.33,3.83,3.75,5.12c1.42,1.29,2.92,2.19,4.5,2.69
			c-1.58,0.5-3.08,1.29-4.5,2.38c-1.42,1.08-2.67,2.61-3.75,4.56c-1.08,1.96-1.94,4.5-2.56,7.62s-0.94,7.02-0.94,11.69H480.43z
			 M490.43,1230.84c0,1.92,0,3.65,0,5.19c0,1.54,0,3.19,0,4.94s0,3.4,0,4.94c0,1.54,0,3.27,0,5.19c0,5.67,0,10.69,0,15.06
			s0,8.4,0,12.06c0,3.67,0,7.21,0,10.62c3.58-2,6.92-3.35,10-4.06c3.08-0.71,5.92-1.39,8.5-2.06c2.58-0.67,4.89-1.81,6.94-3.44
			c2.04-1.62,3.73-4.35,5.06-8.19c1.33,3.5,2.77,6.4,4.31,8.69c1.54,2.29,3.19,4.15,4.94,5.56c1.75,1.42,3.54,2.61,5.38,3.56
			c1.83,0.96,3.69,1.88,5.56,2.75s3.71,1.92,5.5,3.12c1.79,1.21,3.48,2.81,5.06,4.81c0.67,2.33,1,4.64,1,6.94
			c0,2.29-0.33,4.64-1,7.06c-4.33-3.75-8.44-6.4-12.31-7.94c-3.88-1.54-7.48-3.15-10.81-4.81c-3.33-1.67-6.29-4.58-8.88-8.75
			c-0.83,0.92-1.75,1.73-2.75,2.44c-1,0.71-2.11,1.31-3.31,1.81c-1.21,0.5-2.54,0.9-4,1.19c-1.46,0.29-3.08,0.54-4.88,0.75
			c-1.79,0.21-3.81,0.36-6.06,0.44c-2.25,0.08-4.75,0.12-7.5,0.12c-2.17,0-3.96,0-5.38,0s-3.21,0-5.38,0c0-6.58,0-12.44,0-17.56
			s0-10.6,0-16.44c0-5.83,0-11.31,0-16.44s0-10.98,0-17.56H490.43z M543.37,1233.09c0.04,3.5,0.48,7.27,1.31,11.31
			c0.83,4.04,2.02,8.29,3.56,12.75c1.54,4.46,3.38,9.02,5.5,13.69c2.12,4.67,4.5,9.31,7.12,13.94s5.44,9.15,8.44,13.56
			c-2.25,0.92-4.54,1.83-6.88,2.75c-3.33,0.75-6.71,1.5-10.12,2.25c-0.5-5.17-1.15-10.33-1.94-15.5
			c-0.79-5.17-1.69-10.25-2.69-15.25s-2.17-9.81-3.5-14.44c-1.33-4.62-2.83-8.92-4.5-12.88c-1.67-3.96-3.54-7.54-5.62-10.75
			c-2.08-3.21-4.38-5.85-6.88-7.94c3.5,0.75,6.96,1.5,10.38,2.25c2.42-1.67,4.79-3.33,7.12-5
			C543.76,1226.51,543.32,1229.59,543.37,1233.09z M563.43,1213.59c0.08-3.5-0.23-7.29-0.94-11.38c-0.71-4.08-1.75-8.38-3.12-12.88
			s-3.04-9.1-5-13.81c-1.96-4.71-4.17-9.44-6.62-14.19c-2.46-4.75-5.11-9.38-7.94-13.88c2.33-0.83,4.67-1.67,7-2.5
			c3.42-0.58,6.79-1.17,10.12-1.75c0.42,5.17,0.89,10.36,1.44,15.56c0.54,5.21,1.25,10.31,2.12,15.31s1.88,9.83,3,14.5
			c1.12,4.67,2.46,9.02,4,13.06c1.54,4.04,3.31,7.67,5.31,10.88c2,3.21,4.21,5.94,6.62,8.19c-3.42-0.92-6.88-1.79-10.38-2.62
			c-2.42,1.58-4.83,3.17-7.25,4.75C562.8,1220.18,563.34,1217.09,563.43,1213.59z M612.93,1215.34c0-1.92,0-3.64,0-5.19
			c0-1.54,0-3.19,0-4.94s0-3.39,0-4.94c0-1.54,0-3.27,0-5.19c0-5.67,0-10.71,0-15.12c0-4.42,0-8.44,0-12.06s0-7.14,0-10.56
			c-3.58,2-6.92,3.36-10,4.06c-3.08,0.71-5.92,1.4-8.5,2.06c-2.58,0.67-4.88,1.81-6.88,3.44s-3.71,4.36-5.12,8.19
			c-1.25-3.58-2.67-6.5-4.25-8.75c-1.58-2.25-3.25-4.08-5-5.5c-1.75-1.42-3.54-2.6-5.38-3.56c-1.83-0.96-3.69-1.88-5.56-2.75
			s-3.69-1.94-5.44-3.19s-3.46-2.83-5.12-4.75c-0.58-2.42-0.88-4.77-0.88-7.06c0-2.29,0.29-4.6,0.88-6.94
			c4.33,3.75,8.46,6.4,12.38,7.94c3.92,1.54,7.52,3.15,10.81,4.81c3.29,1.67,6.23,4.58,8.81,8.75c0.92-0.92,1.85-1.73,2.81-2.44
			c0.96-0.71,2.04-1.31,3.25-1.81c1.21-0.5,2.54-0.89,4-1.19c1.46-0.29,3.08-0.54,4.88-0.75c1.79-0.21,3.81-0.35,6.06-0.44
			c2.25-0.08,4.75-0.12,7.5-0.12c2.17,0,3.96,0,5.38,0c1.42,0,3.21,0,5.38,0c0,6.58,0,12.44,0,17.56s0,10.61,0,16.44
			c0,5.83,0,11.31,0,16.44s0,10.98,0,17.56H612.93z M622.93,1230.84c0,6.58,0,12.44,0,17.56s0,10.61,0,16.44c0,5.83,0,11.31,0,16.44
			s0,10.98,0,17.56c-2.17,0-3.96,0-5.38,0c-1.42,0-3.21,0-5.38,0c-2.75,0-5.25-0.04-7.5-0.12c-2.25-0.08-4.27-0.23-6.06-0.44
			c-1.79-0.21-3.42-0.46-4.88-0.75c-1.46-0.29-2.79-0.69-4-1.19c-1.21-0.5-2.29-1.1-3.25-1.81c-0.96-0.71-1.9-1.52-2.81-2.44
			c-2.58,4.17-5.52,7.08-8.81,8.75c-3.29,1.67-6.9,3.27-10.81,4.81c-3.92,1.54-8.04,4.19-12.38,7.94c-0.58-2.42-0.88-4.77-0.88-7.06
			c0-2.29,0.29-4.61,0.88-6.94c1.67-2,3.38-3.6,5.12-4.81c1.75-1.21,3.56-2.25,5.44-3.12s3.73-1.79,5.56-2.75
			c1.83-0.96,3.62-2.14,5.38-3.56c1.75-1.42,3.42-3.27,5-5.56c1.58-2.29,3-5.19,4.25-8.69c1.42,3.83,3.12,6.56,5.12,8.19
			s4.29,2.77,6.88,3.44c2.58,0.67,5.42,1.36,8.5,2.06c3.08,0.71,6.42,2.06,10,4.06c0-3.42,0-6.96,0-10.62c0-3.67,0-7.69,0-12.06
			s0-9.39,0-15.06c0-1.92,0-3.64,0-5.19c0-1.54,0-3.19,0-4.94s0-3.39,0-4.94c0-1.54,0-3.27,0-5.19H622.93z M622.93,1249.34h-10
			c0-4.67-0.31-8.56-0.94-11.69s-1.48-5.67-2.56-7.62c-1.08-1.96-2.33-3.48-3.75-4.56c-1.42-1.08-2.92-1.88-4.5-2.38
			c1.58-0.5,3.08-1.39,4.5-2.69c1.42-1.29,2.67-3,3.75-5.12c1.08-2.12,1.94-4.71,2.56-7.75c0.62-3.04,0.94-6.6,0.94-10.69h10
			V1249.34z"/>
		<path d="M612.93,1215.34c0-6.58,0-12.44,0-17.56s0-10.6,0-16.44c0-5.83,0-11.31,0-16.44s0-10.98,0-17.56c2.17,0,3.96,0,5.38,0
			s3.21,0,5.38,0c2.75,0,5.25,0.04,7.5,0.12c2.25,0.08,4.27,0.23,6.06,0.44c1.79,0.21,3.42,0.46,4.88,0.75
			c1.46,0.29,2.79,0.69,4,1.19c1.21,0.5,2.31,1.11,3.31,1.81c1,0.71,1.92,1.52,2.75,2.44c2.58-4.17,5.54-7.08,8.88-8.75
			c3.33-1.67,6.94-3.27,10.81-4.81c3.88-1.54,7.98-4.19,12.31-7.94c0.67,2.33,1,4.65,1,6.94c0,2.29-0.33,4.65-1,7.06
			c-1.58,1.92-3.27,3.5-5.06,4.75c-1.79,1.25-3.62,2.31-5.5,3.19s-3.73,1.79-5.56,2.75c-1.83,0.96-3.62,2.15-5.38,3.56
			c-1.75,1.42-3.4,3.25-4.94,5.5c-1.54,2.25-2.98,5.17-4.31,8.75c-1.33-3.83-3.02-6.56-5.06-8.19c-2.04-1.62-4.36-2.77-6.94-3.44
			c-2.58-0.67-5.42-1.35-8.5-2.06c-3.08-0.71-6.42-2.06-10-4.06c0,3.42,0,6.94,0,10.56s0,7.65,0,12.06c0,4.42,0,9.46,0,15.12
			c0,1.92,0,3.65,0,5.19c0,1.54,0,3.19,0,4.94s0,3.4,0,4.94c0,1.54,0,3.27,0,5.19H612.93z M612.93,1249.34v-52.5h10
			c0,4.08,0.31,7.65,0.94,10.69c0.62,3.04,1.48,5.62,2.56,7.75c1.08,2.12,2.33,3.83,3.75,5.12c1.42,1.29,2.92,2.19,4.5,2.69
			c-1.58,0.5-3.08,1.29-4.5,2.38c-1.42,1.08-2.67,2.61-3.75,4.56c-1.08,1.96-1.94,4.5-2.56,7.62s-0.94,7.02-0.94,11.69H612.93z
			 M622.93,1230.84c0,1.92,0,3.65,0,5.19c0,1.54,0,3.19,0,4.94s0,3.4,0,4.94c0,1.54,0,3.27,0,5.19c0,5.67,0,10.69,0,15.06
			s0,8.4,0,12.06c0,3.67,0,7.21,0,10.62c3.58-2,6.92-3.35,10-4.06c3.08-0.71,5.92-1.39,8.5-2.06c2.58-0.67,4.89-1.81,6.94-3.44
			c2.04-1.62,3.73-4.35,5.06-8.19c1.33,3.5,2.77,6.4,4.31,8.69c1.54,2.29,3.19,4.15,4.94,5.56c1.75,1.42,3.54,2.61,5.38,3.56
			c1.83,0.96,3.69,1.88,5.56,2.75s3.71,1.92,5.5,3.12c1.79,1.21,3.48,2.81,5.06,4.81c0.67,2.33,1,4.64,1,6.94
			c0,2.29-0.33,4.64-1,7.06c-4.33-3.75-8.44-6.4-12.31-7.94c-3.88-1.54-7.48-3.15-10.81-4.81c-3.33-1.67-6.29-4.58-8.88-8.75
			c-0.83,0.92-1.75,1.73-2.75,2.44c-1,0.71-2.11,1.31-3.31,1.81c-1.21,0.5-2.54,0.9-4,1.19c-1.46,0.29-3.08,0.54-4.88,0.75
			c-1.79,0.21-3.81,0.36-6.06,0.44c-2.25,0.08-4.75,0.12-7.5,0.12c-2.17,0-3.96,0-5.38,0s-3.21,0-5.38,0c0-6.58,0-12.44,0-17.56
			s0-10.6,0-16.44c0-5.83,0-11.31,0-16.44s0-10.98,0-17.56H622.93z M670.43,1205.34c2.08-1.08,3.83-2.31,5.25-3.69
			c1.42-1.38,2.54-2.94,3.38-4.69c0.83-1.75,1.46-3.69,1.88-5.81c0.42-2.12,0.69-4.46,0.81-7c0.12-2.54,0.19-5.31,0.19-8.31
			c0-3.92-0.21-7.44-0.62-10.56c-0.42-3.12-1.12-5.88-2.12-8.25s-2.36-4.35-4.06-5.94c-1.71-1.58-3.86-2.77-6.44-3.56
			c-2.58-0.79-5.67-1.19-9.25-1.19c2.92-1.17,6.44-2.02,10.56-2.56c4.12-0.54,8.46-0.81,13-0.81c4.54,0,9,0.27,13.38,0.81
			c4.38,0.54,8.23,1.4,11.56,2.56c-2.92,0-5.54,0.4-7.88,1.19c-2.33,0.79-4.36,1.98-6.06,3.56c-1.71,1.58-3.12,3.56-4.25,5.94
			s-1.96,5.12-2.5,8.25c-0.54,3.12-0.81,6.65-0.81,10.56c0,3,0.06,5.77,0.19,8.31c0.12,2.54,0.39,4.88,0.81,7
			c0.42,2.12,1.04,4.06,1.88,5.81c0.83,1.75,1.92,3.31,3.25,4.69c1.33,1.38,3.04,2.61,5.12,3.69c-4.25-1.25-8.5-2.5-12.75-3.75
			C680.09,1202.84,675.26,1204.09,670.43,1205.34z M673.93,1243.09c4.17,1.33,8.33,2.67,12.5,4c4.25-1.33,8.5-2.67,12.75-4
			c-1.5,0.83-2.86,1.9-4.06,3.19c-1.21,1.29-2.27,2.75-3.19,4.38c-0.92,1.62-1.69,3.29-2.31,5c-0.62,1.71-1.11,3.4-1.44,5.06
			c-0.33,1.67-0.5,3.21-0.5,4.62c0,5.83,1.04,10.77,3.12,14.81c2.08,4.04,5.35,7.12,9.81,9.25c4.46,2.12,10.23,3.19,17.31,3.19
			c5,0,9.42-0.56,13.25-1.69c3.83-1.12,6.98-2.44,9.44-3.94c2.46-1.5,4.14-2.88,5.06-4.12c-0.92-0.92-1.73-1.77-2.44-2.56
			c-0.71-0.79-1.29-1.6-1.75-2.44c-0.46-0.83-0.79-1.73-1-2.69c-0.21-0.96-0.31-1.98-0.31-3.06c0-1.92,0.44-4,1.31-6.25
			s1.75-4.75,2.62-7.5s1.31-5.83,1.31-9.25c0-0.67,0-2.17,0-4.5c0-2.33,0-4.89,0-7.69c0-2.79,0-6.23,0-10.31h10
			c0,3.42,0,8.15,0,14.19c0,6.04,0,12.61,0,19.69c0,7.08,0,14.02,0,20.81c0,6.79,0,12.65,0,17.56c-0.17,0-1.08,0-2.75,0
			c-1.67,0-4.08,0-7.25,0c-1.17,0-2.38,0.14-3.62,0.44c-1.25,0.29-2.62,0.67-4.12,1.12c-1.5,0.46-3.19,0.92-5.06,1.38
			c-1.88,0.46-4,0.83-6.38,1.12c-2.38,0.29-5.06,0.44-8.06,0.44c-1.75,0-3.44-0.04-5.06-0.12c-1.62-0.08-3.17-0.23-4.62-0.44
			c-1.46-0.21-2.86-0.42-4.19-0.62c-1.33-0.21-2.56-0.44-3.69-0.69s-2.17-0.5-3.12-0.75c-0.96-0.25-1.81-0.46-2.56-0.62
			c-0.58,1.17-1.29,2.29-2.12,3.38c-0.83,1.08-1.71,2.08-2.62,3c-0.92,0.92-1.81,1.79-2.69,2.62c-0.88,0.83-1.61,1.62-2.19,2.38
			c-0.58,0.75-0.96,1.46-1.12,2.12c0-1.75-0.02-4.4-0.06-7.94c-0.04-3.54-0.08-7.04-0.12-10.5c-0.04-3.46-0.06-5.89-0.06-7.31
			c0-5.67-0.06-10.67-0.19-15c-0.12-4.33-0.4-8.1-0.81-11.31c-0.42-3.21-0.98-5.98-1.69-8.31c-0.71-2.33-1.67-4.31-2.88-5.94
			C677.16,1245.66,675.68,1244.26,673.93,1243.09z M745.43,1215.34c0-1.92,0-3.64,0-5.19c0-1.54,0-3.19,0-4.94s0-3.39,0-4.94
			c0-1.54,0-3.27,0-5.19c0-5.67,0-10.71,0-15.12c0-4.42,0-8.44,0-12.06s0-7.14,0-10.56c-3.58,2-6.92,3.36-10,4.06
			c-3.08,0.71-5.92,1.4-8.5,2.06c-2.58,0.67-4.88,1.81-6.88,3.44s-3.71,4.36-5.12,8.19c-1.25-3.58-2.67-6.5-4.25-8.75
			c-1.58-2.25-3.25-4.08-5-5.5c-1.75-1.42-3.54-2.6-5.38-3.56c-1.83-0.96-3.69-1.88-5.56-2.75s-3.69-1.94-5.44-3.19
			s-3.46-2.83-5.12-4.75c-0.58-2.42-0.88-4.77-0.88-7.06c0-2.29,0.29-4.6,0.88-6.94c4.33,3.75,8.46,6.4,12.38,7.94
			c3.92,1.54,7.52,3.15,10.81,4.81c3.29,1.67,6.23,4.58,8.81,8.75c0.92-0.92,1.85-1.73,2.81-2.44c0.96-0.71,2.04-1.31,3.25-1.81
			c1.21-0.5,2.54-0.89,4-1.19c1.46-0.29,3.08-0.54,4.88-0.75c1.79-0.21,3.81-0.35,6.06-0.44c2.25-0.08,4.75-0.12,7.5-0.12
			c2.17,0,3.96,0,5.38,0c1.42,0,3.21,0,5.38,0c0,6.58,0,12.44,0,17.56s0,10.61,0,16.44c0,5.83,0,11.31,0,16.44s0,10.98,0,17.56
			H745.43z M745.43,1246.84v-1c0-4.33-0.42-7.96-1.25-10.88c-0.83-2.92-2.15-5.27-3.94-7.06c-1.79-1.79-4.11-3.23-6.94-4.31
			c-2.83-1.08-6.27-2-10.31-2.75c-4.04-0.75-8.73-1.5-14.06-2.25c5.33-0.75,10.02-1.6,14.06-2.56c4.04-0.96,7.48-2.08,10.31-3.38
			c2.83-1.29,5.14-2.83,6.94-4.62c1.79-1.79,3.1-3.92,3.94-6.38c0.83-2.46,1.25-5.31,1.25-8.56v-1c2.5,5.17,4.38,10.02,5.62,14.56
			c1.25,4.54,1.88,8.94,1.88,13.19s-0.62,8.58-1.88,13C749.8,1237.26,747.93,1241.93,745.43,1246.84z M755.43,1274.34h-10
			c0-13.25,0-27.42,0-42.5v-1.25v-1.25c0-16.42,0-32.25,0-47.5h10V1274.34z"/>
	</g>
</g>
<g id="Wood">
	<g>
		<path d="M215.43,910.6c0-7.58,0-14.39,0-20.44c0-6.04,0-12.5,0-19.38s0-13.31,0-19.31s0-10.89,0-14.69c0-3.79,0-5.73,0-5.81
			c3.67,0,6.69,0,9.06,0s5.35,0,8.94,0c1.17-0.08,2.33-0.04,3.5,0.12c1.17,0.17,2.29,0.38,3.38,0.62c1.08,0.25,2.1,0.54,3.06,0.88
			c0.96,0.33,1.89,0.77,2.81,1.31c0.92,0.54,1.75,1.12,2.5,1.75s1.33,1.31,1.75,2.06c1.42-3.5,3.73-6.48,6.94-8.94
			c3.21-2.46,7.25-4.33,12.12-5.62c4.88-1.29,10.6-1.94,17.19-1.94c0.67,2.33,1,4.65,1,6.94c0,2.29-0.33,4.65-1,7.06
			c-3.08,0-6,0.12-8.75,0.38s-5.31,0.65-7.69,1.19c-2.38,0.54-4.44,1.27-6.19,2.19c-1.75,0.92-3.27,2-4.56,3.25
			c-1.29,1.25-2.36,2.73-3.19,4.44c-0.83,1.71-1.42,3.65-1.75,5.81c-0.83-1.58-2-2.85-3.5-3.81c-1.5-0.96-3.42-1.71-5.75-2.25
			c-2.33-0.54-5.12-0.92-8.38-1.12c-3.25-0.21-7.04-0.31-11.38-0.31h-0.12c0,6.42,0,12.12,0,17.12s0,10.27,0,15.81
			c0,5.54,0,10.81,0,15.81s0,10.62,0,16.88H215.43z M215.43,926.48v-39.5h1.5c2.75,0,5.25,0.42,7.5,1.25
			c2.25,0.83,4.21,2.06,5.88,3.69c1.67,1.62,2.94,3.67,3.81,6.12c0.88,2.46,1.31,5.36,1.31,8.69c0,3.33-0.44,6.23-1.31,8.69
			c-0.88,2.46-2.15,4.5-3.81,6.12c-1.67,1.62-3.62,2.86-5.88,3.69c-2.25,0.83-4.75,1.25-7.5,1.25H215.43z M225.43,902.85
			c0,6.25,0,11.88,0,16.88s0,10.27,0,15.81c0,5.54,0,10.81,0,15.81s0,10.71,0,17.12c0.08,0.08,0.12,0.08,0.12,0
			c4.33,0,8.12-0.1,11.38-0.31c3.25-0.21,6.04-0.58,8.38-1.12c2.33-0.54,4.25-1.29,5.75-2.25c1.5-0.96,2.67-2.23,3.5-3.81
			c0.33,2.17,0.92,4.11,1.75,5.81c0.83,1.71,1.89,3.19,3.19,4.44c1.29,1.25,2.81,2.33,4.56,3.25c1.75,0.92,3.81,1.65,6.19,2.19
			c2.38,0.54,4.94,0.94,7.69,1.19s5.67,0.38,8.75,0.38c0.67,2.25,1,4.56,1,6.94s-0.33,4.73-1,7.06c-6.58,0-12.31-0.65-17.19-1.94
			c-4.88-1.29-8.92-3.17-12.12-5.62c-3.21-2.46-5.52-5.44-6.94-8.94c-0.42,0.75-1,1.44-1.75,2.06s-1.58,1.21-2.5,1.75
			c-0.92,0.54-1.86,0.98-2.81,1.31c-0.96,0.33-1.98,0.62-3.06,0.88c-1.08,0.25-2.21,0.44-3.38,0.56c-1.17,0.12-2.33,0.19-3.5,0.19
			c-3.58,0-6.56,0-8.94,0s-5.39,0-9.06,0c0-0.08,0-2.02,0-5.81c0-3.79,0-8.69,0-14.69s0-12.44,0-19.31s0-13.33,0-19.38
			c0-6.04,0-12.85,0-20.44H225.43z M286.8,926.73h-0.25c0.67,0,1.31,0.06,1.94,0.19s1.21,0.27,1.75,0.44
			c0.54,0.17,1.06,0.42,1.56,0.75c0-0.08,0,1.73,0,5.44c0,3.71,0,8.29,0,13.75c0,5.46,0,10.9,0,16.31c0,5.42,0,10,0,13.75
			s-0.04,5.62-0.12,5.62h0.12c-0.08,0-0.11,0.02-0.06,0.06c0.04,0.04,0.06,0.04,0.06,0c0-0.04-0.04-0.02-0.12,0.06
			c-0.75,0.33-1.52,0.56-2.31,0.69c-0.79,0.12-1.69,0.14-2.69,0.06c0,0.08-0.02,0.12-0.06,0.12c-0.04,0-0.02,0,0.06,0
			c0.08,0,0.1,0,0.06,0c-0.04,0-0.06-0.04-0.06-0.12c-0.67,0.08-1.29,0.1-1.88,0.06c-0.58-0.04-1.12-0.12-1.62-0.25
			s-1-0.31-1.5-0.56c0.08,0,0.1,0,0.06,0c-0.04,0-0.06-0.02-0.06-0.06c0-0.04,0.04-0.06,0.12-0.06c0-7.5,0-13.96,0-19.38
			c0-5.42-0.02-10.85-0.06-16.31c-0.04-5.46-0.06-10.04-0.06-13.75c0-3.71,0-5.52,0-5.44c0.5-0.33,1-0.58,1.5-0.75
			c0.5-0.17,1.06-0.31,1.69-0.44S286.14,926.73,286.8,926.73z M286.8,886.73h0.25c-0.67,0-1.31-0.04-1.94-0.12
			c-0.62-0.08-1.19-0.21-1.69-0.38c-0.5-0.17-1-0.46-1.5-0.88c0,0.08,0.02-1.73,0.06-5.44c0.04-3.71,0.06-8.27,0.06-13.69
			c0-5.42,0-10.85,0-16.31c0-5.46,0-11.94,0-19.44h-0.12c0.08-0.08,0.1-0.1,0.06-0.06c-0.04,0.04-0.06,0.02-0.06-0.06
			c0.75-0.33,1.5-0.56,2.25-0.69s1.67-0.14,2.75-0.06c0.08-0.08,0.08-0.12,0-0.12c-0.08,0-0.08,0.04,0,0.12
			c0.67-0.08,1.31-0.12,1.94-0.12s1.19,0.08,1.69,0.25c0.5,0.17,0.96,0.38,1.38,0.62c0.08,0,0.12,0.02,0.12,0.06
			c0,0.04-0.02,0.06-0.06,0.06c-0.04,0-0.04,0,0,0c0.04,0,0.02,0-0.06,0c0.08,0,0.12,1.88,0.12,5.62s0,8.33,0,13.75
			c0,5.42,0,10.86,0,16.31c0,5.46,0,10.04,0,13.75c0,3.71,0,5.52,0,5.44c-0.5,0.42-1,0.71-1.5,0.88c-0.5,0.17-1.08,0.29-1.75,0.38
			C288.14,886.68,287.47,886.73,286.8,886.73z M347.93,910.6c0-6.25,0-11.88,0-16.88s0-10.27,0-15.81c0-5.54,0-10.81,0-15.81
			s0-10.71,0-17.12c-4.33,0-8.12,0.11-11.38,0.31c-3.25,0.21-6.04,0.58-8.38,1.12c-2.33,0.54-4.25,1.29-5.75,2.25
			c-1.5,0.96-2.67,2.23-3.5,3.81c-0.33-2.17-0.92-4.1-1.75-5.81c-0.83-1.71-1.92-3.19-3.25-4.44c-1.33-1.25-2.88-2.33-4.62-3.25
			c-1.75-0.92-3.81-1.64-6.19-2.19c-2.38-0.54-4.9-0.94-7.56-1.19c-2.67-0.25-5.62-0.38-8.88-0.38c-0.58-2.42-0.88-4.77-0.88-7.06
			c0-2.29,0.29-4.6,0.88-6.94c6.58,0,12.31,0.65,17.19,1.94c4.88,1.29,8.92,3.17,12.12,5.62c3.21,2.46,5.52,5.44,6.94,8.94
			c0.5-0.75,1.1-1.44,1.81-2.06c0.71-0.62,1.52-1.21,2.44-1.75c0.92-0.54,1.88-0.98,2.88-1.31c1-0.33,2.02-0.62,3.06-0.88
			c1.04-0.25,2.14-0.46,3.31-0.62c1.17-0.17,2.33-0.21,3.5-0.12c3.67,0,6.69,0,9.06,0s5.35,0,8.94,0c0,0.08,0,2.02,0,5.81
			c0,3.79,0,8.69,0,14.69s0,12.44,0,19.31s0,13.33,0,19.38c0,6.04,0,12.86,0,20.44H347.93z M357.93,902.85c0,7.58,0,14.4,0,20.44
			c0,6.04,0,12.5,0,19.38s0,13.31,0,19.31s0,10.9,0,14.69c0,3.79,0,5.73,0,5.81c-3.58,0-6.56,0-8.94,0s-5.4,0-9.06,0
			c-1.17,0-2.33-0.06-3.5-0.19c-1.17-0.12-2.29-0.31-3.38-0.56c-1.08-0.25-2.11-0.54-3.06-0.88c-0.96-0.33-1.9-0.77-2.81-1.31
			c-0.92-0.54-1.73-1.12-2.44-1.75c-0.71-0.62-1.31-1.31-1.81-2.06c-1.42,3.5-3.73,6.48-6.94,8.94c-3.21,2.46-7.25,4.33-12.12,5.62
			c-4.88,1.29-10.61,1.94-17.19,1.94c-0.58-2.33-0.88-4.69-0.88-7.06s0.29-4.69,0.88-6.94c3.25,0,6.21-0.12,8.88-0.38
			c2.67-0.25,5.17-0.64,7.5-1.19c2.33-0.54,4.39-1.27,6.19-2.19c1.79-0.92,3.35-2,4.69-3.25c1.33-1.25,2.42-2.73,3.25-4.44
			c0.83-1.71,1.42-3.64,1.75-5.81c0.83,1.58,2,2.86,3.5,3.81c1.5,0.96,3.42,1.71,5.75,2.25c2.33,0.54,5.12,0.92,8.38,1.12
			c3.25,0.21,7.04,0.31,11.38,0.31c0,0.08,0,0.08,0,0c0-6.42,0-12.12,0-17.12s0-10.27,0-15.81c0-5.54,0-10.81,0-15.81
			s0-10.62,0-16.88H357.93z M357.93,926.48h-1.5c-2.75,0-5.25-0.42-7.5-1.25c-2.25-0.83-4.21-2.06-5.88-3.69
			c-1.67-1.62-2.94-3.67-3.81-6.12c-0.88-2.46-1.31-5.35-1.31-8.69c0-3.33,0.44-6.23,1.31-8.69c0.88-2.46,2.14-4.5,3.81-6.12
			c1.67-1.62,3.62-2.85,5.88-3.69c2.25-0.83,4.75-1.25,7.5-1.25h1.5V926.48z"/>
		<path d="M347.93,908.1c0-7.33,0-13.94,0-19.81s0-12.12,0-18.75s0-12.85,0-18.69c0-5.83,0-10.58,0-14.25c0-3.67,0-5.54,0-5.62
			c3.67,0,6.69,0,9.06,0s5.35,0,8.94,0c1.17-0.08,2.33-0.04,3.5,0.12c1.17,0.17,2.29,0.38,3.38,0.62c1.08,0.25,2.1,0.54,3.06,0.88
			c0.96,0.33,1.88,0.77,2.75,1.31c0.88,0.54,1.71,1.12,2.5,1.75c0.79,0.62,1.39,1.31,1.81,2.06c1.42-3.5,3.73-6.48,6.94-8.94
			c3.21-2.46,7.25-4.33,12.12-5.62c4.88-1.29,10.6-1.94,17.19-1.94c0.67,2.33,1,4.65,1,6.94c0,2.29-0.33,4.65-1,7.06
			c-3.42,0-6.61,0.19-9.56,0.56c-2.96,0.38-5.69,0.98-8.19,1.81c-2.5,0.83-4.69,1.94-6.56,3.31s-3.44,3.06-4.69,5.06
			s-2.08,4.33-2.5,7c-0.67-2.25-1.79-3.96-3.38-5.12c-1.58-1.17-3.38-1.94-5.38-2.31s-3.92-0.56-5.75-0.56
			c-2.33,0-4.36,0.25-6.06,0.75c-1.71,0.5-3.17,1.25-4.38,2.25c-1.21,1-2.17,2.21-2.88,3.62c-0.71,1.42-1.21,3.02-1.5,4.81
			c-0.29,1.79-0.44,3.77-0.44,5.94v45.75H347.93z M347.93,926.48v-39.5h1.5c2.75,0,5.25,0.42,7.5,1.25
			c2.25,0.83,4.21,2.06,5.88,3.69c1.67,1.62,2.94,3.67,3.81,6.12c0.88,2.46,1.31,5.36,1.31,8.69c0,3.33-0.44,6.23-1.31,8.69
			c-0.88,2.46-2.15,4.5-3.81,6.12c-1.67,1.62-3.62,2.86-5.88,3.69c-2.25,0.83-4.75,1.25-7.5,1.25H347.93z M357.93,905.35v45.75
			c0,2.17,0.14,4.15,0.44,5.94c0.29,1.79,0.79,3.4,1.5,4.81c0.71,1.42,1.67,2.62,2.88,3.62c1.21,1,2.67,1.75,4.38,2.25
			c1.71,0.5,3.73,0.75,6.06,0.75c1.83,0,3.75-0.19,5.75-0.56s3.79-1.14,5.38-2.31c1.58-1.17,2.71-2.88,3.38-5.12
			c0.42,2.67,1.25,5,2.5,7s2.81,3.69,4.69,5.06s4.06,2.48,6.56,3.31c2.5,0.83,5.23,1.44,8.19,1.81c2.96,0.38,6.14,0.56,9.56,0.56
			c0.67,2.25,1,4.56,1,6.94s-0.33,4.73-1,7.06c-6.58,0-12.31-0.65-17.19-1.94c-4.88-1.29-8.92-3.17-12.12-5.62
			c-3.21-2.46-5.52-5.44-6.94-8.94c-0.42,0.75-1.02,1.44-1.81,2.06c-0.79,0.62-1.62,1.21-2.5,1.75c-0.88,0.54-1.79,0.98-2.75,1.31
			c-0.96,0.33-1.98,0.62-3.06,0.88c-1.08,0.25-2.21,0.44-3.38,0.56c-1.17,0.12-2.33,0.19-3.5,0.19c-3.58,0-6.56,0-8.94,0
			s-5.39,0-9.06,0c0-0.08,0-1.96,0-5.62c0-3.67,0-8.42,0-14.25c0-5.83,0-12.06,0-18.69s0-12.88,0-18.75s0-12.48,0-19.81H357.93z
			 M414.18,906.48c0-0.58,0.02-1.19,0.06-1.81c0.04-0.62,0.04-1.52,0-2.69c-0.04-1.17-0.06-2.75-0.06-4.75s0-4.52,0-7.56
			c0-3.04,0-6.81,0-11.31c0.5-0.33,1-0.58,1.5-0.75c0.5-0.17,1.04-0.31,1.62-0.44c0.58-0.12,1.25-0.19,2-0.19c-0.08,0-0.15,0-0.19,0
			c-0.04,0-0.02,0,0.06,0c0.67,0,1.27,0.06,1.81,0.19c0.54,0.12,1.08,0.27,1.62,0.44c0.54,0.17,1.06,0.42,1.56,0.75
			c0,4.5,0,8.27,0,11.31c0,3.04,0,5.56,0,7.56s0,3.58,0,4.75c0,1.17,0,2.06,0,2.69s0,1.23,0,1.81c0,0.5-0.02,1-0.06,1.5
			c-0.04,0.5-0.02,1.17,0.06,2c0.08,0.83,0.1,1.9,0.06,3.19c-0.04,1.29-0.04,2.92,0,4.88c0.04,1.96,0.04,4.29,0,7
			c-0.04,2.71-0.02,5.94,0.06,9.69c-0.5,0.25-1.02,0.42-1.56,0.5c-0.54,0.08-1.11,0.19-1.69,0.31c-0.58,0.12-1.21,0.19-1.88,0.19
			c-0.08,0-0.11,0-0.06,0c0.04,0,0.1,0,0.19,0c-0.75,0-1.44-0.06-2.06-0.19s-1.19-0.23-1.69-0.31c-0.5-0.08-1-0.25-1.5-0.5
			c0.08-3.75,0.1-6.98,0.06-9.69c-0.04-2.71-0.04-5.04,0-7c0.04-1.96,0.06-3.58,0.06-4.88c0-1.29,0.02-2.35,0.06-3.19
			c0.04-0.83,0.04-1.5,0-2C414.2,907.48,414.18,906.98,414.18,906.48z M480.43,908.1v-45.75c0-2.17-0.15-4.14-0.44-5.94
			c-0.29-1.79-0.79-3.39-1.5-4.81c-0.71-1.42-1.67-2.62-2.88-3.62c-1.21-1-2.67-1.75-4.38-2.25c-1.71-0.5-3.73-0.75-6.06-0.75
			c-1.83,0-3.75,0.19-5.75,0.56s-3.79,1.15-5.38,2.31c-1.58,1.17-2.71,2.88-3.38,5.12c-0.42-2.67-1.25-5-2.5-7s-2.81-3.69-4.69-5.06
			s-4.06-2.48-6.56-3.31c-2.5-0.83-5.23-1.44-8.19-1.81c-2.96-0.38-6.15-0.56-9.56-0.56c-0.58-2.42-0.88-4.77-0.88-7.06
			c0-2.29,0.29-4.6,0.88-6.94c6.58,0,12.31,0.65,17.19,1.94c4.88,1.29,8.92,3.17,12.12,5.62c3.21,2.46,5.52,5.44,6.94,8.94
			c0.58-0.75,1.23-1.44,1.94-2.06c0.71-0.62,1.52-1.21,2.44-1.75c0.92-0.54,1.83-0.98,2.75-1.31c0.92-0.33,1.92-0.62,3-0.88
			c1.08-0.25,2.21-0.46,3.38-0.62c1.17-0.17,2.33-0.21,3.5-0.12c3.67,0,6.69,0,9.06,0s5.35,0,8.94,0c0,0.08,0,1.96,0,5.62
			c0,3.67,0,8.42,0,14.25c0,5.83,0,12.06,0,18.69s0,12.88,0,18.75s0,12.48,0,19.81H480.43z M490.43,905.35c0,7.33,0,13.94,0,19.81
			s0,12.12,0,18.75s0,12.86,0,18.69c0,5.83,0,10.58,0,14.25c0,3.67,0,5.54,0,5.62c-3.58,0-6.56,0-8.94,0s-5.4,0-9.06,0
			c-1.17,0-2.33-0.06-3.5-0.19c-1.17-0.12-2.29-0.31-3.38-0.56c-1.08-0.25-2.08-0.54-3-0.88c-0.92-0.33-1.83-0.77-2.75-1.31
			c-0.92-0.54-1.73-1.12-2.44-1.75c-0.71-0.62-1.36-1.31-1.94-2.06c-1.42,3.5-3.73,6.48-6.94,8.94c-3.21,2.46-7.25,4.33-12.12,5.62
			c-4.88,1.29-10.61,1.94-17.19,1.94c-0.58-2.33-0.88-4.69-0.88-7.06s0.29-4.69,0.88-6.94c3.42,0,6.6-0.19,9.56-0.56
			c2.96-0.38,5.69-0.98,8.19-1.81c2.5-0.83,4.69-1.94,6.56-3.31s3.44-3.06,4.69-5.06s2.08-4.33,2.5-7c0.67,2.25,1.79,3.96,3.38,5.12
			c1.58,1.17,3.38,1.94,5.38,2.31s3.92,0.56,5.75,0.56c2.33,0,4.35-0.25,6.06-0.75c1.71-0.5,3.17-1.25,4.38-2.25
			c1.21-1,2.17-2.21,2.88-3.62c0.71-1.42,1.21-3.02,1.5-4.81c0.29-1.79,0.44-3.77,0.44-5.94v-45.75H490.43z M490.43,926.48h-1.5
			c-2.75,0-5.25-0.42-7.5-1.25c-2.25-0.83-4.21-2.06-5.88-3.69c-1.67-1.62-2.94-3.67-3.81-6.12c-0.88-2.46-1.31-5.35-1.31-8.69
			c0-3.33,0.44-6.23,1.31-8.69c0.88-2.46,2.14-4.5,3.81-6.12c1.67-1.62,3.62-2.85,5.88-3.69c2.25-0.83,4.75-1.25,7.5-1.25h1.5
			V926.48z"/>
		<path d="M480.43,910.6c0-7.58,0-14.39,0-20.44c0-6.04,0-12.5,0-19.38s0-13.31,0-19.31s0-10.89,0-14.69c0-3.79,0-5.73,0-5.81
			c3.67,0,6.69,0,9.06,0s5.35,0,8.94,0c1.17-0.08,2.33-0.04,3.5,0.12c1.17,0.17,2.29,0.38,3.38,0.62c1.08,0.25,2.1,0.54,3.06,0.88
			c0.96,0.33,1.89,0.77,2.81,1.31c0.92,0.54,1.75,1.12,2.5,1.75s1.33,1.31,1.75,2.06c1.42-3.5,3.73-6.48,6.94-8.94
			c3.21-2.46,7.25-4.33,12.12-5.62c4.88-1.29,10.6-1.94,17.19-1.94c0.67,2.33,1,4.65,1,6.94c0,2.29-0.33,4.65-1,7.06
			c-3.08,0-6,0.12-8.75,0.38s-5.31,0.65-7.69,1.19c-2.38,0.54-4.44,1.27-6.19,2.19c-1.75,0.92-3.27,2-4.56,3.25
			c-1.29,1.25-2.36,2.73-3.19,4.44c-0.83,1.71-1.42,3.65-1.75,5.81c-0.83-1.58-2-2.85-3.5-3.81c-1.5-0.96-3.42-1.71-5.75-2.25
			c-2.33-0.54-5.12-0.92-8.38-1.12c-3.25-0.21-7.04-0.31-11.38-0.31h-0.12c0,6.42,0,12.12,0,17.12s0,10.27,0,15.81
			c0,5.54,0,10.81,0,15.81s0,10.62,0,16.88H480.43z M480.43,926.48v-39.5h1.5c2.75,0,5.25,0.42,7.5,1.25
			c2.25,0.83,4.21,2.06,5.88,3.69c1.67,1.62,2.94,3.67,3.81,6.12c0.88,2.46,1.31,5.36,1.31,8.69c0,3.33-0.44,6.23-1.31,8.69
			c-0.88,2.46-2.15,4.5-3.81,6.12c-1.67,1.62-3.62,2.86-5.88,3.69c-2.25,0.83-4.75,1.25-7.5,1.25H480.43z M490.43,902.85
			c0,6.25,0,11.88,0,16.88s0,10.27,0,15.81c0,5.54,0,10.81,0,15.81s0,10.71,0,17.12c0.08,0.08,0.12,0.08,0.12,0
			c4.33,0,8.12-0.1,11.38-0.31c3.25-0.21,6.04-0.58,8.38-1.12c2.33-0.54,4.25-1.29,5.75-2.25c1.5-0.96,2.67-2.23,3.5-3.81
			c0.33,2.17,0.92,4.11,1.75,5.81c0.83,1.71,1.89,3.19,3.19,4.44c1.29,1.25,2.81,2.33,4.56,3.25c1.75,0.92,3.81,1.65,6.19,2.19
			c2.38,0.54,4.94,0.94,7.69,1.19s5.67,0.38,8.75,0.38c0.67,2.25,1,4.56,1,6.94s-0.33,4.73-1,7.06c-6.58,0-12.31-0.65-17.19-1.94
			c-4.88-1.29-8.92-3.17-12.12-5.62c-3.21-2.46-5.52-5.44-6.94-8.94c-0.42,0.75-1,1.44-1.75,2.06s-1.58,1.21-2.5,1.75
			c-0.92,0.54-1.86,0.98-2.81,1.31c-0.96,0.33-1.98,0.62-3.06,0.88c-1.08,0.25-2.21,0.44-3.38,0.56c-1.17,0.12-2.33,0.19-3.5,0.19
			c-3.58,0-6.56,0-8.94,0s-5.39,0-9.06,0c0-0.08,0-2.02,0-5.81c0-3.79,0-8.69,0-14.69s0-12.44,0-19.31s0-13.33,0-19.38
			c0-6.04,0-12.85,0-20.44H490.43z M550.37,934.04c1.96,5.46,4.06,11.25,6.31,17.38s4.33,11.92,6.25,17.38
			c1.92,5.46,3.52,9.94,4.81,13.44c1.29,3.5,1.94,5.21,1.94,5.12c0.08,0,0.08-0.02,0-0.06c-0.08-0.04-0.11-0.04-0.06,0
			c0.04,0.04,0.02,0.02-0.06-0.06c0.08,0-0.12,0.27-0.62,0.81c-0.5,0.54-1.02,1.08-1.56,1.62c-0.54,0.54-0.86,0.81-0.94,0.81
			c-2,0.17-4.04,0.38-6.12,0.62c0.17,0.08,0.21,0.08,0.12,0c0-0.08-0.65-1.83-1.94-5.25c-1.29-3.42-2.94-7.88-4.94-13.38
			s-4.12-11.33-6.38-17.5c-2.25-6.17-4.38-11.94-6.38-17.31s-3.61-9.81-4.81-13.31c-1.21-3.5-1.81-5.29-1.81-5.38
			c0.17-0.33,0.39-0.69,0.69-1.06c0.29-0.38,0.71-0.73,1.25-1.06c0.54-0.33,1.06-0.62,1.56-0.88c-0.08-0.08-0.04-0.12,0.12-0.12
			c-0.08,0-0.08,0,0,0c0.58-0.25,1.23-0.44,1.94-0.56c0.71-0.12,1.44-0.17,2.19-0.12c0.75,0.04,1.38,0.15,1.88,0.31l-0.25-0.12
			c0.17,0.08,0.21,0.12,0.12,0.12C546.18,922.39,548.41,928.58,550.37,934.04z M560.37,893.29c-1.12-3.54-2.61-8.04-4.44-13.5
			c-1.83-5.46-3.77-11.31-5.81-17.56c-2.04-6.25-3.94-12.12-5.69-17.62s-3.75-11.75-6-18.75c-0.08,0-0.11,0-0.06,0
			c0.04,0,0.06,0.04,0.06,0.12c1.17-1.17,2.29-2.25,3.38-3.25c2.08-0.17,4.17-0.29,6.25-0.38h-0.12c2.33,7.08,4.39,13.4,6.19,18.94
			c1.79,5.54,3.71,11.4,5.75,17.56c2.04,6.17,3.96,12.02,5.75,17.56c1.79,5.54,3.81,11.77,6.06,18.69
			c-0.17,0.42-0.46,0.83-0.88,1.25c-0.42,0.42-0.86,0.77-1.31,1.06c-0.46,0.29-1.02,0.56-1.69,0.81c0,0.17,0.04,0.21,0.12,0.12
			h-0.12h0.12c-0.5,0.25-1.12,0.42-1.88,0.5c-0.75,0.08-1.5,0.08-2.25,0c-0.75-0.08-1.38-0.21-1.88-0.38h-0.12
			C561.97,898.56,561.49,896.83,560.37,893.29z M612.93,910.6c0-6.25,0-11.88,0-16.88s0-10.27,0-15.81c0-5.54,0-10.81,0-15.81
			s0-10.71,0-17.12c-4.33,0-8.12,0.11-11.38,0.31c-3.25,0.21-6.04,0.58-8.38,1.12c-2.33,0.54-4.25,1.29-5.75,2.25
			c-1.5,0.96-2.67,2.23-3.5,3.81c-0.33-2.17-0.92-4.1-1.75-5.81c-0.83-1.71-1.92-3.19-3.25-4.44c-1.33-1.25-2.88-2.33-4.62-3.25
			c-1.75-0.92-3.81-1.64-6.19-2.19c-2.38-0.54-4.9-0.94-7.56-1.19c-2.67-0.25-5.62-0.38-8.88-0.38c-0.58-2.42-0.88-4.77-0.88-7.06
			c0-2.29,0.29-4.6,0.88-6.94c6.58,0,12.31,0.65,17.19,1.94c4.88,1.29,8.92,3.17,12.12,5.62c3.21,2.46,5.52,5.44,6.94,8.94
			c0.5-0.75,1.1-1.44,1.81-2.06c0.71-0.62,1.52-1.21,2.44-1.75c0.92-0.54,1.88-0.98,2.88-1.31c1-0.33,2.02-0.62,3.06-0.88
			c1.04-0.25,2.14-0.46,3.31-0.62c1.17-0.17,2.33-0.21,3.5-0.12c3.67,0,6.69,0,9.06,0s5.35,0,8.94,0c0,0.08,0,2.02,0,5.81
			c0,3.79,0,8.69,0,14.69s0,12.44,0,19.31s0,13.33,0,19.38c0,6.04,0,12.86,0,20.44H612.93z M622.93,902.85c0,7.58,0,14.4,0,20.44
			c0,6.04,0,12.5,0,19.38s0,13.31,0,19.31s0,10.9,0,14.69c0,3.79,0,5.73,0,5.81c-3.58,0-6.56,0-8.94,0s-5.4,0-9.06,0
			c-1.17,0-2.33-0.06-3.5-0.19c-1.17-0.12-2.29-0.31-3.38-0.56c-1.08-0.25-2.11-0.54-3.06-0.88c-0.96-0.33-1.9-0.77-2.81-1.31
			c-0.92-0.54-1.73-1.12-2.44-1.75c-0.71-0.62-1.31-1.31-1.81-2.06c-1.42,3.5-3.73,6.48-6.94,8.94c-3.21,2.46-7.25,4.33-12.12,5.62
			c-4.88,1.29-10.61,1.94-17.19,1.94c-0.58-2.33-0.88-4.69-0.88-7.06s0.29-4.69,0.88-6.94c3.25,0,6.21-0.12,8.88-0.38
			c2.67-0.25,5.17-0.64,7.5-1.19c2.33-0.54,4.39-1.27,6.19-2.19c1.79-0.92,3.35-2,4.69-3.25c1.33-1.25,2.42-2.73,3.25-4.44
			c0.83-1.71,1.42-3.64,1.75-5.81c0.83,1.58,2,2.86,3.5,3.81c1.5,0.96,3.42,1.71,5.75,2.25c2.33,0.54,5.12,0.92,8.38,1.12
			c3.25,0.21,7.04,0.31,11.38,0.31c0,0.08,0,0.08,0,0c0-6.42,0-12.12,0-17.12s0-10.27,0-15.81c0-5.54,0-10.81,0-15.81
			s0-10.62,0-16.88H622.93z M622.93,926.48h-1.5c-2.75,0-5.25-0.42-7.5-1.25c-2.25-0.83-4.21-2.06-5.88-3.69
			c-1.67-1.62-2.94-3.67-3.81-6.12c-0.88-2.46-1.31-5.35-1.31-8.69c0-3.33,0.44-6.23,1.31-8.69c0.88-2.46,2.14-4.5,3.81-6.12
			c1.67-1.62,3.62-2.85,5.88-3.69c2.25-0.83,4.75-1.25,7.5-1.25h1.5V926.48z"/>
		<path d="M612.93,910.6c0-7.58,0-14.39,0-20.44c0-6.04,0-12.5,0-19.38s0-13.31,0-19.31s0-10.89,0-14.69c0-3.79,0-5.73,0-5.81
			c3.67,0,6.69,0,9.06,0s5.35,0,8.94,0c1.17-0.08,2.33-0.04,3.5,0.12c1.17,0.17,2.29,0.38,3.38,0.62c1.08,0.25,2.1,0.54,3.06,0.88
			c0.96,0.33,1.89,0.77,2.81,1.31c0.92,0.54,1.75,1.12,2.5,1.75s1.33,1.31,1.75,2.06c1.42-3.5,3.73-6.48,6.94-8.94
			c3.21-2.46,7.25-4.33,12.12-5.62c4.88-1.29,10.6-1.94,17.19-1.94c0.67,2.33,1,4.65,1,6.94c0,2.29-0.33,4.65-1,7.06
			c-3.08,0-6.02,0.12-8.81,0.38c-2.79,0.25-5.36,0.65-7.69,1.19c-2.33,0.54-4.38,1.27-6.12,2.19c-1.75,0.92-3.27,2-4.56,3.25
			c-1.29,1.25-2.36,2.73-3.19,4.44c-0.83,1.71-1.42,3.65-1.75,5.81c-0.83-1.58-2-2.85-3.5-3.81c-1.5-0.96-3.42-1.71-5.75-2.25
			c-2.33-0.54-5.12-0.92-8.38-1.12c-3.25-0.21-7.04-0.31-11.38-0.31h-0.12c0,6.42,0,12.12,0,17.12s0,10.27,0,15.81
			c0,5.54,0,10.81,0,15.81s0,10.62,0,16.88H612.93z M612.93,926.48v-39.5h1.5c2.75,0,5.25,0.42,7.5,1.25
			c2.25,0.83,4.21,2.06,5.88,3.69c1.67,1.62,2.94,3.67,3.81,6.12c0.88,2.46,1.31,5.36,1.31,8.69c0,3.33-0.44,6.23-1.31,8.69
			c-0.88,2.46-2.15,4.5-3.81,6.12c-1.67,1.62-3.62,2.86-5.88,3.69c-2.25,0.83-4.75,1.25-7.5,1.25H612.93z M622.93,902.85
			c0,6.25,0,11.88,0,16.88s0,10.27,0,15.81c0,5.54,0,10.81,0,15.81s0,10.71,0,17.12c0.08,0.08,0.12,0.08,0.12,0
			c4.33,0,8.12-0.1,11.38-0.31c3.25-0.21,6.04-0.58,8.38-1.12c2.33-0.54,4.25-1.29,5.75-2.25c1.5-0.96,2.67-2.23,3.5-3.81
			c0.33,2.17,0.92,4.11,1.75,5.81c0.83,1.71,1.89,3.19,3.19,4.44c1.29,1.25,2.81,2.33,4.56,3.25c1.75,0.92,3.79,1.65,6.12,2.19
			c2.33,0.54,4.89,0.94,7.69,1.19c2.79,0.25,5.73,0.38,8.81,0.38c0.67,2.25,1,4.56,1,6.94s-0.33,4.73-1,7.06
			c-6.58,0-12.31-0.65-17.19-1.94c-4.88-1.29-8.92-3.17-12.12-5.62c-3.21-2.46-5.52-5.44-6.94-8.94c-0.42,0.75-1,1.44-1.75,2.06
			s-1.58,1.21-2.5,1.75c-0.92,0.54-1.86,0.98-2.81,1.31c-0.96,0.33-1.98,0.62-3.06,0.88c-1.08,0.25-2.21,0.44-3.38,0.56
			c-1.17,0.12-2.33,0.19-3.5,0.19c-3.58,0-6.56,0-8.94,0s-5.39,0-9.06,0c0-0.08,0-2.02,0-5.81c0-3.79,0-8.69,0-14.69
			s0-12.44,0-19.31s0-13.33,0-19.38c0-6.04,0-12.85,0-20.44H622.93z M682.24,886.6c-0.62-0.08-1.19-0.21-1.69-0.38
			c-0.5-0.17-1-0.46-1.5-0.88c0,0.08,0.02-1.73,0.06-5.44c0.04-3.71,0.06-8.27,0.06-13.69c0-5.42,0-10.85,0-16.31
			c0-5.46,0-10.06,0-13.81s0.04-5.62,0.12-5.62h-0.12c-0.08-0.08-0.11-0.12-0.06-0.12c0.04,0,0.1,0,0.19,0
			c0.42-0.25,0.88-0.46,1.38-0.62c0.5-0.17,1.04-0.25,1.62-0.25c0.58,0,1.21,0,1.88,0c0.08,0,0.1,0,0.06,0c-0.04,0-0.02,0,0.06,0
			c0.92,0,1.79,0.06,2.62,0.19c0.83,0.12,1.62,0.36,2.38,0.69c-0.08,0.08-0.12,0.11-0.12,0.06c0-0.04,0.02-0.04,0.06,0
			c0.04,0.04,0.02,0.06-0.06,0.06h-0.12c0.08,0,0.12,1.88,0.12,5.62s0,8.36,0,13.81c0,5.46,0,10.9,0,16.31
			c0,5.42,0.02,9.98,0.06,13.69c0.04,3.71,0.06,5.52,0.06,5.44c-0.5,0.42-1.02,0.71-1.56,0.88c-0.54,0.17-1.11,0.29-1.69,0.38
			c-0.58,0.08-1.21,0.12-1.88,0.12h0.12C683.55,886.73,682.87,886.68,682.24,886.6z M679.05,931.48c0.5-0.17,1.02-0.33,1.56-0.5
			c0.54-0.17,1.12-0.31,1.75-0.44s1.23-0.19,1.81-0.19c0.75,0,1.42,0.06,2,0.19c0.58,0.12,1.14,0.27,1.69,0.44
			c0.54,0.17,1.02,0.33,1.44,0.5c-0.17,1.25-0.29,2.44-0.38,3.56c-0.08,1.12-0.15,2.17-0.19,3.12c-0.04,0.96-0.08,1.81-0.12,2.56
			c-0.04,0.75-0.06,1.46-0.06,2.12c0,0.67,0,1.29,0,1.88c-0.08,6.75,0.85,12.5,2.81,17.25c1.96,4.75,5.29,8.4,10,10.94
			c4.71,2.54,11.19,3.81,19.44,3.81h-0.12c3.75,0,7.27-0.33,10.56-1c3.29-0.67,6.17-1.5,8.62-2.5c2.46-1,4.31-2,5.56-3
			c0-0.42,0-1.33,0-2.75c0-1.42,0-2.96,0-4.62c0-1.67,0-3.08,0-4.25c-1,0-1.96-0.12-2.88-0.38c-0.92-0.25-1.71-0.6-2.38-1.06
			c-0.67-0.46-1.21-1.04-1.62-1.75c-0.42-0.71-0.62-1.52-0.62-2.44c0-2.5,0.62-4.54,1.88-6.12c1.25-1.58,2.5-3.71,3.75-6.38
			c1.25-2.67,1.88-6.79,1.88-12.38c0-0.75,0-1.79,0-3.12c0-1.33,0-2.75,0-4.25s0-3.29,0-5.38h10c0,3.67,0,8.21,0,13.62
			c0,5.42,0,11.21,0,17.38c0,6.17,0,12.4,0,18.69c0,6.29,0,12.11,0,17.44c-2.42,0.83-4.77,1.58-7.06,2.25
			c-2.29,0.67-4.54,1.27-6.75,1.81c-2.21,0.54-4.46,1.02-6.75,1.44c-2.29,0.42-4.65,0.73-7.06,0.94c-2.42,0.21-5.04,0.31-7.88,0.31
			c-2.5,0.08-4.86,0.02-7.06-0.19c-2.21-0.21-4.21-0.48-6-0.81c-1.79-0.33-3.44-0.73-4.94-1.19c-1.5-0.46-2.86-0.96-4.06-1.5
			c-1.21-0.54-2.31-1.12-3.31-1.75s-1.92-1.23-2.75-1.81h-0.12c-1,1.42-1.88,2.62-2.62,3.62s-1.5,2-2.25,3s-1.62,2.21-2.62,3.62
			c-0.08,0-0.08,0,0,0c-1.67-2.33-2.83-4.67-3.5-7c-0.67-2.33-1.08-4.64-1.25-6.94c-0.17-2.29-0.25-4.56-0.25-6.81
			c0-3.42-0.02-6.67-0.06-9.75c-0.04-3.08-0.04-6.04,0-8.88c0.04-2.83,0.04-5.52,0-8.06c-0.04-2.54-0.06-4.94-0.06-7.19
			S679.05,933.31,679.05,931.48z M745.43,910.6c0-6.25,0-11.88,0-16.88s0-10.27,0-15.81c0-5.54,0-10.81,0-15.81s0-10.71,0-17.12
			c-4.33,0-8.12,0.11-11.38,0.31c-3.25,0.21-6.04,0.58-8.38,1.12c-2.33,0.54-4.25,1.29-5.75,2.25c-1.5,0.96-2.67,2.23-3.5,3.81
			c-0.33-2.17-0.92-4.1-1.75-5.81c-0.83-1.71-1.92-3.19-3.25-4.44c-1.33-1.25-2.88-2.33-4.62-3.25c-1.75-0.92-3.79-1.64-6.12-2.19
			c-2.33-0.54-4.86-0.94-7.56-1.19c-2.71-0.25-5.69-0.38-8.94-0.38c-0.58-2.42-0.88-4.77-0.88-7.06c0-2.29,0.29-4.6,0.88-6.94
			c6.58,0,12.31,0.65,17.19,1.94c4.88,1.29,8.92,3.17,12.12,5.62c3.21,2.46,5.52,5.44,6.94,8.94c0.5-0.75,1.1-1.44,1.81-2.06
			c0.71-0.62,1.52-1.21,2.44-1.75c0.92-0.54,1.88-0.98,2.88-1.31c1-0.33,2.02-0.62,3.06-0.88c1.04-0.25,2.14-0.46,3.31-0.62
			c1.17-0.17,2.33-0.21,3.5-0.12c3.67,0,6.69,0,9.06,0s5.35,0,8.94,0c0,0.08,0,2.02,0,5.81c0,3.79,0,8.69,0,14.69s0,12.44,0,19.31
			s0,13.33,0,19.38c0,6.04,0,12.86,0,20.44H745.43z M745.43,928.73v-1c0-4.5-0.86-8.1-2.56-10.81c-1.71-2.71-3.96-4.73-6.75-6.06
			c-2.79-1.33-5.75-2.23-8.88-2.69c-3.12-0.46-6.12-0.69-9-0.69s-5.23,0.04-7.06,0.12c-0.25-0.67-0.44-1.38-0.56-2.12
			s-0.19-1.5-0.19-2.25c0-1,0.06-1.77,0.19-2.31c0.12-0.54,0.31-1.1,0.56-1.69c1.83-0.08,4.19-0.1,7.06-0.06
			c2.88,0.04,5.88-0.25,9-0.88s6.08-1.67,8.88-3.12c2.79-1.46,5.04-3.56,6.75-6.31c1.71-2.75,2.56-6.42,2.56-11v-1
			c1.25,5.17,2.21,9.86,2.88,14.06c0.67,4.21,0.98,8.29,0.94,12.25c-0.04,3.96-0.36,8-0.94,12.12
			C747.72,919.41,746.76,923.89,745.43,928.73z M755.43,957.98h-10c0-14.92,0-29.92,0-45v-1.25v-1.25c0-16.42,0-33.08,0-50h10
			V957.98z"/>
	</g>
</g>
</svg>
